<?xml version="1.0" encoding="UTF-8"?>
<svg width="290pt" height="262pt" version="1.0" viewBox="0 0 290 262" xmlns="http://www.w3.org/2000/svg">
  <g transform="translate(0 262) scale(.12 -.12)" stroke="#fff" stroke-width="3.12">
    <path d="m1555 2174c-3-1-9-1-12-2-9-1-13-3-12-4 0 0 4-1 9-2 7 0 9-1 11-2 1-2 1-2 0-3-2-2-28-5-42-5-12 0-16 0-21-2-8-2-10-3-22-6-4 0-9-2-11-4-3-2-6-3-8-4-7-1-11-2-13-5l-2-2h3c2 0 6 1 8 1 7 3 27 4 39 3 17-2 19-2 19-3 1-1-3-2-13-2-6 0-19-1-30-2-11 0-22-1-26-1-11-1-16-3-26-12s-20-17-28-21c-7-4-10-8-8-11s3-3 11 0c9 5 16 9 15 9s-5-1-9-3c-8-3-8-3-8-2 0 2 4 5 8 6 2 0 5 1 8 3 2 1 7 2 11 2 4 1 8 2 9 2 0 0 3 1 7 2 3 1 8 2 12 3 6 2 11 2 11 0 0-1-1-2-3-3-10-2-32-10-34-13 0-1-2-2-4-3s-7-4-11-8c-5-3-10-7-12-8-6-5-10-11-9-14 0-3-2-5-6-5-3 0-5-1-9-4-7-6-7-6-9-10-2-3-5-5-6-4 0 1 2 5 7 10l4 6c0 1-2 3-4 5-5 4-5 5-11-5-5-9-10-21-12-30-1-3-2-9-3-12s-2-7-2-8c0-2 0-2 3 0 2 1 6 4 9 7 4 3 9 6 12 8 3 1 7 4 8 5 4 3 19 14 23 16 1 1 7 5 14 8 16 10 34 18 41 18 2 0 3-1 1-3-1 0-9-4-17-9-9-4-18-9-19-10-2-2-6-3-8-4-3-1-8-4-12-6-4-3-10-6-12-7-5-2-5-3-5-6s-1-5-7-11c-12-13-29-35-27-35 1 0 5 4 9 8 10 9 14 12 16 12 4 0 2-4-13-23-10-11-35-36-43-43-3-2-6-5-7-7s-2-3-4-2c-4 0-5-2-5-10 0-9 1-19 4-27 8-22 10-26 21-37 16-17 16-17 16-21 0-6 3-10 7-11 2-1 4-2 4-3 1-2 3-4 4-6 1-1 3-4 4-7 1-4 1-4-1-7s-7-16-9-25c-1-3-3-9-5-12l-3-7v-14c1-15 1-17 4-29 5-19 12-35 16-39 4-5 12-21 12-25s1-5 4-7c1-1 4-4 6-7 3-5 3-6 3-13 0-6 1-7 3-9l3-3-2-5c-2-5-2-7-1-10 1-4 1-6-2-6-2 0-4 2-4 4s-1 3-2 3-10-3-20-7c-12-5-21-9-27-10s-13-3-17-5c-4-1-11-2-17-3-19-2-32-5-48-13-10-5-14-7-15-6-1 0-1 6-2 14v18c-1 2-1 10-2 17 0 9-1 14-3 18-2 5-7 12-10 12 0 0-4 2-7 4-4 3-11 6-16 9-10 4-14 6-19 10-9 8-28 22-44 31-5 3-11 7-13 8-19 12-28 17-34 17-2 0-7 1-11 1-6 2-14 2-31-1-6-1-9-1-11 0-5 1-9 1-11 0-3-1-13-3-29-4-9 0-9 0-10 2 0 3 2 78 2 79 1 0 1 7 2 15 1 9 2 16 3 18 1 1 5 7 11 12 11 12 11 14 5 17-2 1-5 3-6 4-2 1-12 1-32 1-40 1-58 2-77 3-19 0-20 0-20-6 0-5 3-11 7-14 1-1 4-5 7-10 3-7 3-8 4-19 1-20 2-89 1-127l-1-37-2-5c-2-3-3-7-3-8 0-2 3-11 5-17 1-1 1-3 0-3-1-2-2-20-3-92 0-38 0-76-1-84 0-9-1-31-1-50 0-20 0-44-1-54 0-21 1-27 6-42 6-19 16-26 40-29 5-1 13 1 22 5 7 3 13 9 16 16 3 5 6 18 7 31 1 6 2 14 2 17 1 4 1 23 2 57 0 95 0 95 2 96l4-2c4-3 29-16 34-17 2-1 8-3 14-5l11-5 4-7c2-4 5-9 6-12 2-2 4-6 5-9 0-2 1-6 2-8s1-4 0-8c-4-13-4-56 0-70 2-7 6-16 9-19 2-1 6-6 11-11l11-11c2-1 5-2 6-3 1-2 5-4 7-5 3-2 7-5 9-7 5-5 13-19 15-25 3-6 39-67 46-77 3-3 7-10 11-15 3-5 10-15 15-22 9-12 11-14 28-38 21-31 28-40 36-50 9-13 11-16 9-17-5-2-18-17-21-25-1-3-3-9-5-12-4-8-5-15-5-37 0-16 1-28 4-34 1-2 5-9 9-15 10-14 22-24 41-35 5-3 11-7 13-9 5-3 8-4 10-2 3 3 0 9-8 16-3 2-5 4-6 5 0 1-4 3-8 5-3 1-12 6-18 10-11 7-12 7-16 15-6 9-9 18-9 24 0 2-1 6-1 9-1 3-2 10-2 18 0 16 3 31 9 42 3 6 15 22 17 22 1 0 3-2 4-4 2-2 5-6 8-8 2-3 6-8 8-11 1-2 5-6 7-8s5-5 6-8c5-10 10-11 11-2 1 4 1 5-2 9-1 2-6 8-10 12-3 4-8 10-9 13-2 3-3 5-4 5-1 1-2 4-4 8s-6 10-9 14c-4 3-6 8-7 10s-2 5-4 6c-3 2-7 8-7 12-1 3-2 5-5 7-5 3-7 7-7 11s-3 8-5 8c0 0-2 1-4 3-3 2-3 3-3 7 0 6-2 9-6 9-2 0-4 1-6 2-2 3-2 3-1 6 4 6 1 11-6 10-5-1-8 1-8 5 0 1 0 2 1 2s2 1 3 3 1 2 0 5c-2 4-5 5-10 3-3-2-3-2-6 0-3 4-3 6 1 7 5 3 6 9 2 12-3 1-6 1-10-2-2-3-4-2-7 4-2 3-2 5 1 5s6 2 7 5c0 2 0 3-2 6-4 3-6 2-10-2l-3-3-3 3c-1 1-2 3-3 3-5 5-12 15-15 20-1 2-4 8-8 13-3 5-7 13-9 18-4 8-8 14-15 22-2 3-4 7-5 9-1 1-3 4-5 6-13 14-21 23-21 25 0 3-3 6-6 6-1 1-4 2-5 3-2 2-2 3-1 7 0 7-1 9-8 9-4 0-5 0-5 2-1 2-1 4 0 6 3 5 2 7-2 9-1 2-3 3-3 4-1 0 0 4 0 9 1 9 0 9 7 7 6-1 9 6 5 10-2 2-4 2-9 1-2-1-2 2 0 23 1 13 1 14 4 15 1 2 2 3 2 5 0 4-1 5-4 7-4 2-5 7-3 7 3 0 13-4 16-6 5-2 9-1 10 2 1 5-1 7-7 10-3 2-6 3-6 4-1 0 0 2 1 4 1 3 1 3 0 5-3 5-9 4-11-1-1-5-1-5-3-5-1 0-5 1-9 2l-6 3-1 4c0 4 0 6-1 7-4 2-7 1-9-2-3-3-4-4-11-1-6 2-6 2-9 7-2 5-7 5-11 2-1-2-2-3-2-3-3 0-9 3-13 7-4 2-9 5-11 6-7 3-8 4-6 8 3 4 2 7 0 9-4 2-7 1-9-4-2-4-3-4-12 0-5 2-6 3-6 6-1 1-2 4-3 5-2 1-3 1-6 0-4-1-5-1-9 2-4 2-5 3-5 4 0 2 1 2 4 3 4 0 7 2 7 5 0 2 3 4 4 3 1 0 4-1 8-2l7-2v-4c0-8 7-11 11-4 1 3 1 3 4 2 9-1 12-3 14-8 3-5 6-6 11-2l4 2 7-2c6-2 7-3 8-4 0-2 1-4 2-5 2-1 3-1 10 1 4 1 15-3 19-6 3-3 5-4 12-1 2 1 4 1 9 0 6-1 6-2 8-5 3-6 6-7 12-1 3 3 4 3 6 2h7c2 0 3 0 3 2 0 4 1 4 4 3 2-1 2-1 4 0 0 1 1 3 1 3 1 1 2 1 4-1 1-1 5-4 8-6 5-3 5-3 8-2 2 1 3 2 3 6 0 5-3 6-9 5-3-1-4-1-15 5-7 3-13 7-14 7 0 1 1 4 3 7 2 4 3 6 6 7 6 2 8 7 3 11-2 2-2 3-2 8 2 10 2 11 5 11 2 0 4 1 5 1 4 2 17-1 22-5 1-2 4-3 5-3 2 0 6 3 6 5 0 3-4 7-9 8-2 0-4 2-5 2-2 2-2 2 0 5 4 5 2 10-4 10-4 0-6-3-5-8 0-2 0-3-1-3-3 0-6 2-7 4-1 0-3 2-5 4-4 1-5 3-6 6-1 4-4 5-9 4-4-1-15 2-21 6-2 1-5 2-6 2-2 0-10 4-10 5l2 2c5 3 3 11-3 11-5 0-9-7-5-10 2-1 1-2-1-2-1 0-7 1-13 3-6 1-12 2-14 2s-7 1-10 2c-4 1-7 1-10 1-8-1-17 0-21 4s-4 4-9 1c-3-2-16-4-18-2-1 0-1 2-2 4 0 4-3 7-5 7-1 0-3-1-4-2-2-1-2-5-1-9 2-3-5-4-10-1-4 1-5 1-8 0s-8-1-12-1c-7 0-8 0-8 2-1 6-6 8-11 4-4-3-8-1-10 3-3 9 0 12 17 16 7 2 14 4 16 5s6 2 9 3c2 1 8 3 12 4 4 2 8 3 9 3 0-1 2-2 2-4 2-7 11-6 11 1 0 2 1 4 1 5 1 0 9 1 18 1l16 1 2-4c2-3 4-4 6-4 3 0 5 1 6 5l2 4h11c17 1 19 1 23-1 2-2 6-4 9-5 2-2 5-3 5-4 1 0 0-2 0-4-2-4-1-8 2-9s7 1 8 4c0 2 1 3 1 4 0 0 3-1 7-2 3-2 6-3 7-3 2-1 2-2 3-6s4-6 9-4c3 1 5 1 12-1 5-2 10-4 11-5s3-2 4-2c3 0 9-4 9-5s-1-2-2-3c-3-4-1-10 4-10 4 0 5 1 6 5l1 4 5-1c4 0 8-1 10-1 3-1 3-2 3-4-1-8 0-10 5-10s8 5 5 10c-1 1-2 3-2 4-1 2-2 3-4 4s-3 2-4 4c-1 7-5 10-10 6-4-2-9-1-17 4-4 3-7 5-8 5 0 0-2 1-4 3-4 2-4 2-3 6 0 6-1 9-6 9-2 0-3-1-5-2-2-4-4-4-11 0-4 1-7 3-8 5-2 4-4 5-9 4-6-2-17 2-24 8-2 2-5 4-7 5-3 1-3 1-2 3 4 7-4 13-9 8-2-2-2-3-1-6 0-4 0-4-3-5-2-1-3-1-6 0-4 2-4 2-8 0s-18-5-20-4-2 1-1 4c2 5-3 11-8 8-3-1-4-5-2-8 2-5-1-6-13-3-2 0-4 0-5-2-2-1-5-2-10-3-4 0-10-2-14-3-8-3-11-3-14 1-1 1-3 3-5 3-5 2-7 5-7 10 0 7 2 8 9 9 5 0 6 0 9 2 1 2 3 2 6 2 2 0 4 1 6 3 3 3 12 7 18 7 2 1 5 1 5 2 2 1 14 4 17 4 1 0 3-1 5-2 3-4 5-4 10-1 3 2 6 2 11 2h8v-4c0-6 5-9 10-6 1 1 2 3 2 6v5h14c7 0 15 0 16 1 3 1 6 0 6-2 0-3 4-7 6-7s4 1 5 2l3 2 4-3c2-2 6-5 8-6 3-1 7-3 10-5 6-4 6-4 6-8 0-3 1-5 2-6 2-2 4-2 8 0 4 3 6 3 11-2 3-2 8-6 11-8 7-5 8-6 10-12 1-5 3-6 8-4 5 1 5 1 13-3 4-3 10-6 14-8 8-3 9-4 7-5 0-1-1-3-1-5s1-3 3-5c2-1 2-1 6 1 2 1 4 2 5 1 2-1 1-8-1-11-3-3-3-5 0-9 2-3 3-5 3-11l1-8-5-1c-4 0-8-2-8-5 0-1 1-3 2-4 1-2 2-2 6-2l4 1v-8c0-4 0-12 1-18v-11l-4-2c-3-1-4-2-4-5s2-5 6-6l4-1v-10c1-5 1-13 0-16 0-6-1-8-3-11-4-4-4-7 1-11l3-3v-8c0-4-1-8-1-9-1 0-2 0-4 1-6 2-11-3-8-9 2-2 3-2 5-2s4 1 5 2c2 0 2 0 2-7-1-3-1-8-1-9v-12c0-9 0-10-2-11-4-2-5-3-5-6 0-4 1-6 5-7 4 0 5-3 5-8 0-6 5-15 8-17 2-1 3-3 4-5 1-5 4-7 9-7 3 0 4 0 6-2 1-3 1-3-1-6-3-3-3-6 0-9 2-2 5-3 8-1 1 1 2 2 3 2 3 0 13-10 33-35 5-6 11-13 13-16 3-3 5-6 5-7 0-4 2-6 6-8 6-2 7-5 6-10 0-5 2-8 9-8 5 0 9-2 9-5 0 0 0-1-1-1 0 0-2-1-3-2-3-3-3-7 0-10 4-2 8-1 9 4 1 1 2 3 3 3 2-1 27-26 28-29 1-2 2-3 5-4 1-1 4-2 5-4 3-3 3-3 2-5-4-5-1-10 4-10 3 0 11 8 11 11-1 2-60 62-62 62-3 0-51 51-51 54 0 1-3 4-6 8-4 4-7 7-7 8 0 0-6 7-14 15s-15 15-16 17-4 5-5 7c-5 5-8 16-9 38-1 10-1 20-2 23 0 2 0 8 1 14s1 19 1 29l1 18 2 2c2 2 3 3 3 4 0 0 1 1 3 2 3 0 5 2 5 4 0 3 3 5 5 3 2-1 3-1 7 3 2 2 5 4 5 6 2 4 6 7 15 12 3 3 8 6 9 7s5 3 8 4c3 0 8 3 12 4 4 2 13 6 22 10 8 3 19 8 25 11 6 2 12 5 14 6 1 1 3 2 4 3h3c1 0 1 1 0 3 0 2 0 3 2 4 3 1 5 0 5-4 0-3 2-7 3-7s1 3 1 6c0 7 1 10 4 10 2 0 12-19 15-28 5-14 10-22 20-33s19-17 32-24c7-3 20-6 36-8 4 0 8-1 9-1 1-1 11-18 15-25 7-14 31-29 60-36 13-4 24-3 42 1 2 1 10 3 18 4 7 2 14 3 17 4 6 1 21 7 25 10 1 1 4 2 6 3s4 2 5 2c0 1 4 3 9 5 9 4 11 6 27 21 9 9 18 19 21 22 9 11 12 16 19 24 3 5 9 12 13 16 3 4 7 9 9 12 8 13 8 14 11 13 1 0 4 1 6 1 3 1 4 1 7-1s5-3 5-3c2 0 15-10 21-17 9-8 17-15 20-17 1-1 6-4 11-7 5-4 12-8 16-11 5-2 10-5 13-6 2-1 8-4 13-7 5-2 11-5 13-7 2-1 5-4 8-5 2-1 5-3 6-5 0-1 3-4 6-5 6-5 13-10 19-15 2-2 7-6 10-8 2-3 8-8 12-12 16-18 34-39 38-45 2-3 7-8 10-12 2-3 6-8 8-12 11-17 21-34 22-37 3-4 12-28 13-33 1-3 2-8 4-12 3-7 8-25 10-37 1-3 3-10 4-15 2-5 3-12 3-14 4-24 5-38 6-50 0-7 1-14 1-15 2-5 2-42 1-60-3-28-2-28-11-41-2-4-6-10-8-14-8-13-12-19-21-32-14-19-19-26-24-32-3-3-8-9-10-13-3-4-8-10-11-13s-6-7-7-9c-2-2-8-9-15-16s-14-15-16-17-6-8-10-12c-11-11-20-22-25-28-3-4-10-12-16-19-7-7-13-14-15-16-2-3-9-11-17-18-7-8-14-16-15-18s-3-4-4-5c-1-2-4-5-6-8s-6-9-10-13-8-10-10-12c-4-6-9-11-17-20-3-4-8-9-10-12s-5-7-8-10c-5-8-34-35-43-42-5-3-11-8-13-11-3-2-8-6-10-7-11-7-16-13-11-17 1-1 2-1 6 1 10 5 20 12 27 18 4 3 9 7 11 9 5 4 19 16 23 21 3 2 8 7 12 10 3 2 11 9 16 15 6 6 15 15 21 22 5 6 12 13 14 17 3 3 8 9 11 13 4 4 9 10 11 13 3 3 11 12 18 21 23 24 44 47 63 71 3 4 9 10 13 15 4 4 13 13 19 20 10 13 13 15 14 15s1-4 0-9c-1-3-3-11-5-17-3-14-5-20-9-34-4-10-6-19-12-38-4-19-11-37-15-39-2-1-6-7-9-16-1-3-4-7-5-9-2-2-5-7-7-11s-7-11-10-15c-9-12-9-12-9-15 1-2 2-2 4-2 3 0 4 2 7 6 5 6 13 10 15 8 1 0 1-4 2-8 1-14 2-15 9-8l6 6v13c1 7 2 17 2 22 1 4 1 11 2 14 0 3 1 8 3 11 1 3 4 10 6 17 2 6 5 13 6 15s3 7 4 11 4 12 6 19c3 7 6 16 7 20 3 8 4 12 6 27 1 5 3 13 4 18s2 11 2 13 2 6 6 13c3 6 6 12 7 15 1 2 3 7 6 10 3 4 8 11 11 16s9 14 13 19c4 6 9 15 11 19 2 5 5 11 7 13 15 21 19 31 20 49 1 5 2 13 2 18 2 16 3 52 2 58-2 10-4 31-5 49-2 21-2 21-8 48-7 34-22 76-35 95-2 4-5 8-6 10-2 4-10 19-17 30-2 4-8 11-11 16-4 5-10 13-14 18-7 9-40 43-46 47-2 1-5 4-7 5-1 1-6 5-9 8-3 2-9 7-12 10-3 2-9 7-13 9-4 3-10 8-13 10-12 8-23 16-38 23-8 5-17 9-19 11-2 1-8 6-14 10-5 4-12 9-15 12s-10 9-15 12-10 7-11 8-2 6-3 11c-2 8-4 14-10 25-3 8-2 8 7 5l5-2 5 2c3 1 6 2 8 2 9 0 17 6 33 22 8 9 14 17 20 25 2 5 11 16 14 19 1 1 3 3 4 5 1 1 5 6 10 10 4 5 9 11 12 15 2 3 5 9 8 12 9 13 14 24 17 41 2 16 1 34-3 47-1 2-3 8-5 14-4 11-10 20-17 24-2 1-6 4-9 5l-4 3v20c1 24-1 48-4 59-2 7-7 20-15 41-6 13-12 26-16 31-2 2-9 15-9 17s-8 18-13 27c-3 5-8 12-12 16-3 3-8 10-10 13-22 29-42 47-62 55-20 9-47 17-61 19-3 0-8 1-10 2-14 6-32 12-41 13-11 1-71 1-77 0zm23-23c0-2-2-3-3-2-2 1-1 3 1 3 1 0 2-1 2-1zm49-5c2-2 2-2 0-2-1-1-3-1-5-1-1-1-4-2-5-3s-5-2-8-3c-8-2-20-8-20-10 0-1 3-2 7-4 15-4 29-12 29-16 0-2-6-1-15 3-11 5-22 8-30 9-6 0-8 0-10-2-3-2-2-4 2-4 15 0 48-13 65-24 3-3 7-5 7-5 3 0 5-4 4-12 0-3 0-3-3-3-4 0-6 2-6 7 1 4 1 4-2 5-1 1-3 2-4 3-3 2-25 13-27 13-1 0-4 1-6 2-3 2-6 3-8 3-5 1-20 5-22 6-1 0-3 1-3 3-1 1-2 2-5 1-4 0-12-4-14-6-2-1-5-3-8-4-7-3-6-5 5-8 40-12 65-22 67-26 1-3-3-3-16 1-4 1-41 10-52 12-3 1-9 2-12 4-4 1-9 2-12 2s-4 1-3 2c0 1-1 2-3 4-7 4-3 6 11 6 6 1 8 2 15 8 1 2 4 3 5 4 3 0 13 7 13 8s-3 2-6 2-4 1-3 3c1 3 5 4 20 4l15 1 3 3c2 1 7 4 12 6s11 5 13 6c6 3 13 4 15 2zm58-8c18-6 49-20 65-30 8-5 9-6 9-8-1-2 1-5 7-12 4-5 9-11 12-13 2-2 4-5 5-6s5-6 9-10c5-4 8-9 8-9 0-1 2-4 4-7s5-7 6-10c1-2 2-4 3-5 2-1 9-14 8-14-3-2-6-4-7-4s-3 2-5 4c-4 7-5 9-7 11-1 1-5 7-8 12-4 4-9 11-12 15-3 3-6 8-8 10-2 3-4 5-5 6-1 0-4 3-6 6-3 3-6 7-9 9-2 2-4 5-5 6-1 3-1 3 1 5l2 3-4 5c-3 3-5 5-10 7-4 1-11 4-17 7-6 2-12 5-14 6-6 3-27 10-31 10l-4 1 5-3 6-6c2-3 12-9 22-14 2-1 5-3 6-4s5-6 9-9c11-10 17-20 14-22-1-1-4 1-16 10-15 12-31 23-34 23-1 0-3 1-4 2-1 0-4 1-6 2-3 0-6 1-8 2-1 1-3 2-3 1-1-1-8 2-10 5-1 2-1 2 0 5 2 1 2 3 2 5-1 4 0 6 4 6 1 0 2-1 2-2 0-2 1-3 2-3s1 1 1 4c-1 3 0 4 2 6s1 2 19-3zm-55-33c2 0 3-1 3-2 0-2-3-1-5 2-3 2-2 3 2 0zm-94-27c4 0 6-1 11-4 16-8 21-12 25-16 7-6 4-8-5-4-3 2-6 4-8 5-3 3-6 4-23 12-5 2-10 5-11 5-2 2 0 3 3 2h8zm-35-9c4-2 2-14-3-16-1-1-2-2-2-6-1-5-1-6 2-4 2 1 3 1 13-6 4-3 7-5 8-4 0 0 0 1-1 1-3 2-10 9-10 10 0 2 3 0 10-5 6-6 8-7 8-5s4 0 10-5c5-5 6-7 6-9-1-1-1-3 1-4 0-1 1-3 1-3-1-2 2-5 8-11 16-16 25-27 24-29-1-1-8 3-8 5-1 1-2 2-3 2-3 2-21 18-21 20 0 0-4 4-9 7-5 4-11 9-14 12-11 9-17 12-20 12-2-1-2 0-3 2-4 9-10 12-10 5 0-4-1-5-5-2-5 3-1 14 10 27 5 7 6 7 8 6zm25-5c3-2 10-7 12-7s22-19 22-21c0-1-1-1-3-1-3 0-5 1-10 5-7 5-15 11-21 15-4 2-10 7-10 8s1 1 2 1 3 0 4 1c2 1 2 1 4-1zm-50-43c0-1-1-2-3-2-1 0-2 0-2 2 0 1 0 2 1 2 1 2 4 0 4-2zm11-6c2-2 7-13 9-22 1-3 1-4 0-5-1-2-4 0-5 3-1 1-2 3-4 5-1 3-2 5-1 6 0 2 0 4-3 6-1 2-3 4-4 4-2 1-3 2-1 4s6 1 9-1zm22-13c6-6 13-13 16-17l9-9c2-2 3-5 3-5 0-2-6 0-7 1 0 1-1 2-2 2-18 16-31 28-32 31s0 8 2 8c0 0 6-5 11-11zm316 5c1-2 2-4 2-5 0-2-1-2-3-2-3 0-3 1-3 2s0 3 1 4c0 4 0 4 1 4s2-1 2-3zm-239 0c0-1 0-2-1-3-2-2-4-1-4 2 0 2 3 3 5 1zm-108-12c1-2 1-3 0-3-2 0-5 3-5 4 1 2 5 1 5-1zm356-6c0-2-2-1-3 2-1 1-1 3-1 3 0 2 4-3 4-5zm-426-3c2 0 3-4 1-4s-4 1-4 3 1 2 3 1zm77-2c2-2 3-4 3-6 1-1 3-4 6-7s6-7 8-9c2-4 2-4 1-8-2-3-2-4-1-6 2-3 5-4 8-3s4 1 11-6c6-6 7-9 10-15 2-4 3-9 3-10 0-3 2-5 7-7 4-2 10-11 10-14 0-1-1-2-1-3-1 0-2-2-3-3-1-2-1-3 0-5 2-3 6-3 10 0 3 2 3 2 6 1 1-1 3-4 4-7 2-3 2-4 6-5 3 0 5-2 10-7 4-4 9-9 12-11s6-5 6-6c2-2-1-4-6-4-4-1-5 0-5 5 0 3-1 4-3 5-5 2-9-4-6-9 1-2-1-4-9-7-5-1-10 0-10 2 0 0-1 1-3 2-4 1-6 0-8-4-2-2-3-3-8-4h-16c-11 0-11 0-14 2-4 4-8 4-10 0-1-2-1-3 0-7l1-4-5-5-5-4v-7c0-4 0-7 1-7s4 1 9 3c4 2 8 3 8 3 1-1 2-2 2-4 1-4 5-6 8-4 4 1 5 5 3 8-3 4-2 5 3 5 8 2 14 1 16 0 3-3 6-2 9 0 2 1 4 2 6 2 3 0 4-1 4-4s1-6 2-7c2-3 0-3-15-3-13 1-14 1-15-5-1-3-2-5-8-10s-9-6-9-2c0 5-6 8-10 4-4-3-2-8 3-9 4-1 4-2 7-10 2-5 2-7 1-9-1-4-1-5 0-7 2-2 9-4 12-3 3 0 2 2 0 9-3 7-2 10 2 11 1 1 3 2 4 3s3 2 4 2c3 0 6-4 6-6 0-4 3-7 7-7 2 0 3-1 4-3 0-3 6-6 20-9 17-5 18-5 22-2 6 4 7 4 8-3 1-6 1-7 5-7 3-1 6 1 6 6 0 3-1 3-3 5-2 1-4 2-4 3s5 5 7 5c1 0 4 1 7 3 7 3 9 3 10-3 1-7 5-9 9-6s4 6-1 10l-4 4c0 1-2 2-4 3-3 2-3 2-3 5 2 9 2 12 1 14s-2 2-5 2c-2-1-4-1-5-2-2 0-3 1-7 5l-5 5h-6c-8-1-10-1-11 3-3 7-8 7-11 1-2-2-3-2-7-2-7 1-8 2-5 5 1 2 2 4 2 6 0 5 2 6 11 4 3-1 10-1 15-2 6-1 10-2 12-3 3-2 5-2 9-1h6l4-4c5-5 8-6 10-3 3 2 2 6-2 8-2 2-3 4-4 6 0 1-1 3-1 4-2 3 1 2 7-2 19-12 21-13 17-15-5-2-7-8-2-11 2-1 2-1 4 0s3 3 3 5c1 4 4 4 7 0 2-2 3-4 3-7s1-4 2-6c3-1 3-1 7 1 3 1 4 1 6 0l4-4c2-4 4-6 9-6 3 0 5-1 9-4 2-2 6-5 7-6 2-1 6-3 10-6 3-3 8-6 12-8 11-5 12-6 8-11-3-4-3-6 0-8 4-3 6-2 9 1s4 3 4 0c0-1 1-3 2-3 1-1 2-3 2-6 0-5-2-6-8-7-5 0-6 0-10 3-3 2-4 4-4 6 0 3-5 18-7 21-1 1-2 2-5 3-2 0-4 1-5 2 0 2-2 1-4-1-3-2-7-15-6-18 1-1 1-1 4 3 1 2 3 5 3 5 1 3 12-13 13-18 0-3 0-4-3-8-3-5-4-6-1-10 1-2 1-3 0-6-1-1-2-3-2-4 0-2 3-5 6-5 4 0 6 3 5 8 0 3 0 4 2 6 1 1 4 3 6 6 3 3 5 4 7 4 3 0 3 0 3-5s1-6 3-6c6-2 9 4 5 9-2 3-2 3 0 4 1 1 3 3 6 5 3 4 4 5 4 8 1 5 2 6 7 5 8-1 8-2 3-14-4-8-6-11-14-19l-10-10-3 1c-7 2-11-2-9-8 1-2 2-3 2-4s-12-14-15-15c-2-1-7 0-8 3 0 0 1 2 2 3 3 4 1 10-4 10-2 0-6-4-6-5 0-2-3-1-3 1-1 1-1 6-2 11 0 8 0 9 2 10 3 3 3 8 0 10-6 4-9 1-9-10 0-7-1-9-5-10-3-1-3-6-1-10 2-3 2-3 0-6-1-1-3-3-5-3-4-1-6-5-4-9 3-5 2-7-3-10-6-4-6-5-5-12v-7l-3-2c-7-4-6-3-4-13 0-2 0-3-3-5-7-6-7-6-7-11 0-6-1-8-5-12-2-2-3-4-3-5 0-7-9-19-18-25-5-3-6-4-9-3-5 2-9 0-9-6 0-4-2-6-9-10l-5-2-3 3c-3 4-7 5-10 2-1-1-1-2-1-6l1-5-7-5c-4-3-8-5-9-6-3 0-3 0-3 4s0 5-1 7c-3 1-6 1-8-1-3-3-2-8 3-10l2-2-3-2c-4-2-16-6-19-6-1 0-2 2-2 4s-1 4-3 5-3 1-5 0c-2-2-3-3-3-5s0-4 1-4c1-1 1-2 1-3s-2-3-6-4c-9-4-11-4-13 0-2 3-4 5-7 5-2 0-5-4-5-7 0-5-2-5-16-5-13 1-18 2-22 6-3 2-5 2-11 0-2-1-3-1-5 0s-3 3-3 4c0 3-3 6-5 6-1 0-4-1-6-1-2-1-3-1-5 0s-3 3-4 4c-1 3-5 6-8 6s-7 4-10 10c-2 4-2 4-1 5 4 3 6 5 6 7 0 6-7 8-11 4-1-2-2-3-3-3s-8 14-9 19v3h4c3 0 4 1 6 3 1 2 1 3 0 5-2 3-7 4-10 1s-5-2-6 3c-1 3-2 6-3 8-3 5-3 8 0 8 2 0 4 1 5 2 3 2 2 7-1 9-3 1-3 1-6-1-2-1-3-2-4-2s-5 8-6 14c0 5 0 5 3 7s4 2 4 5c0 5-3 7-8 5-4-1-5 0-9 9-3 6-3 6-2 7 7 4 9 8 5 11-1 2-3 2-7 2s-5 0-5 2-2 5-4 7c-4 4-4 8 0 8 2 0 6 3 6 6 0 2-3 5-5 5-1 0-3-1-5-2-4-2-5-1-8 8-4 8-4 9 1 12 7 3 5 11-4 11h-4v6c0 5 1 10 3 24 1 3 2 6 3 8 2 2 2 4 2 7-1 9 0 10 3 12 6 3 7 9 2 12-3 2-4 6-1 7 1 0 8-3 10-5 1-1 3-2 5-3 5-2 5-5 2-8-4-3-4-7-1-10 3-1 5-1 8 2 3 4 10 1 10-4 0-4 2-6 5-6s5 2 6 6l1 4h13c12 0 17 0 17 3 0 1-1 4-3 6-3 5-4 6-1 9l2 2 4-2c6-3 6-4 6-9-1-2-1-9-2-14 0-9 0-9-3-11l-4-2c-2-3-1-7 1-8 2-2 3-6 1-9-1-2-2-2-4-1-4 0-7-2-7-6 0-3 2-6 6-6h3l-1-13c0-10 0-14-3-22-1-5-3-10-4-11s-4-6-6-11c-5-10-8-12-18-12-5 0-6 0-8-3s0-7 5-9c3-1 5-2 7-7 2-6 3-8 0-12-2-3-1-5 2-8 3-1 3-1 5 0 4 3 5 6 2 11-2 2-3 5-3 7s1 2 5 2 5 0 7 2c2 4 0 7-4 9s-4 2-3 5c2 4 3 5 8 4 4 0 5 0 6 2 3 3 2 4-1 9-5 4-5 4-2 6 1 2 2 2 6-1 2-1 5-2 6-2s5-1 9-3c3-1 9-3 13-4 4 0 8-2 10-2l4-2c1 0 3 2 5 4 10 8 22 9 35 3 5-3 7-3 11-3 12 2 11 2 12-1 1-7 6-9 10-5 3 3 2 6-1 9-3 2-3 3-3 6 2 5 7 3 9-3 1-2 2-4 4-4 4-2 4-4 2-9-1-3-1-3 0-6 1-2 2-3 7-3 6-1 6-1 11-6 5-6 6-6 10-6 8 0 18-6 17-11 0-2-1-2-3-2-6 0-8-1-9-4-2-5 2-9 8-7 4 2 5 1 10-4 6-5 8-6 11-3 4 4 2 9-4 10l-3 1-1 7c0 8-2 17-5 19 0 1-2 1-5 1-7-2-8-1-11 2-5 7-6 7-10 6h-5l-4 6c-5 7-5 10-1 10 1 1 3 2 4 3 3 2 2 7 0 8-3 3-5 2-9-1-3-2-3-2-5-1-1 1-2 4-4 7l-3 5-5-1h-5l-1 4c-1 3-2 6-3 8l-2 3 2 1c6 4 6 11 1 13-4 1-7-1-8-4-1-2-2-4-3-3-2 0-6 7-6 10s-2 5-6 5c-2 0-3-1-5-2-2-4-1-6 4-9 4-4 11-12 11-15 0-1-1-2-2-4-1-1-2-3-2-4 0-3 4-6 8-6 3 0 4 0 4-2 1-3 0-6-3-9l-2-2-5 4c-3 2-9 5-14 6-8 3-10 3-20 1-4 0-4 0-4 4-1 5-3 6-6 6-2 0-3-1-5-3-1-2-1-3 0-6 1-4 1-4-1-6-3-4-4-4-11-1-3 2-8 4-11 4-10 3-13 7-9 16 0 3 1 8 1 11 0 7 1 7 4 10 5 3 6 6 3 10-1 2-2 4-2 7s1 4 5 4c7 0 9 5 5 9-2 2-3 2-6 2-2-1-4-1-4 0-2 2-1 16 1 21 0 2 2 6 3 9 2 6 8 17 11 21 2 2 3 4 3 4 0 1-2 12-3 17 0 1-3 4-7 7-7 4-8 6-6 9 2 2 1 7-2 9-3 1-3 1-6-1-1-1-3-3-3-4 0-3-2-3-7-2-3 2-3 2-3 4 3 8 1 12-4 12-2 0-6-4-6-7 0-2 0-2-3-2-2 1-5 2-7 2l-4 2 3 3c2 2 3 4 3 4 0 3-4 6-6 6s-5-3-5-6c0-4-2-5-9-5-4 0-6 0-7 2-3 3-6 3-16 4-10 0-11 1-12 3l-4 4c-3 3-3 3-3 10 1 8 3 12 8 16 5 3 8 4 10 1 3-3 7-4 9-1 2 2 2 4 0 8l-1 3 3 3c2 1 6 5 9 8 4 3 8 6 11 8s4 2 7 1c6-3 10 0 9 8v4l5 2c7 4 10 4 13 0 1-2 3-3 5-3 6 0 8 6 3 10-2 1-3 3-3 4s3 4 7 5c5 2 7 4 7 8 0 5 2 9 12 21 7 9 10 10 14 7 4-4 6-4 9 0 1 2 3 3 3 3 1 0 2-1 3-3zm212-11c1-1-2-4-3-4-2 0-2 2-1 4 1 1 4 1 4 0zm-137-15c0-2 0-2-2-2-1 0-2 2-2 3 0 2 0 2 2 2 1 0 2-2 2-3zm17-16c18-17 29-31 29-34 0-6-3-4-18 11-28 29-32 33-32 34 0 0 1 1 3 1s4 1 4 1c1 0 7-6 14-13zm71-25c0-1-1-3-2-3s-1 1 0 3c0 5 1 5 2 4s1-2 0-4zm-312-14c0-1-3-6-5-8-1-1-2-3-3-5s-2-4-3-4c-2 0-1 3 1 6 2 1 3 3 3 4 1 1 3 4 4 7 1 1 3 1 3 0zm247-21c7-4 8-6 6-8-1-1-2-1-4 1s-8 10-6 10c0 0 2-1 4-3zm20-18c3-2 7-9 6-10s-8 3-10 6-2 6 0 6c1 0 3-1 4-2zm279-23c2-1 3-3 3-4 1-2 2-2 5-2 5 0 6-1 11-9 3-5 2-8-3-7-1 0-2 0-2-1 0 0 1-1 3-1 4 0 6-4 6-11 0-4 1-7 2-10 2-3 3-7 3-10 0-9-5-25-8-28-1-1-2-2-2-3s-1-2-1-2c-1 0-3 0-3-1-2 0-2 0-2 2s0 2-2 1c0-2-1-3-1-5 0-1-1-4-3-6l-2-4-2 2c-1 1-2 3-2 4s2 8 4 17c4 14 5 20 3 21-1 1-6-11-7-18-1-8-6-21-10-27-3-4-5-5-5-3s4 18 5 22c5 12 8 30 8 41 0 9 0 10-5 19-3 6-5 11-5 13 0 4 4 11 7 11 1 0 3-1 5-1zm-999-8c4 0 9-1 10-1s17-1 37-1c19 0 36-1 37-1 3-1 3-3-1-5-4-4-7-11-9-26-3-23-5-53-5-86 0-17 0-22-1-23-2-1-12-4-13-3 0 1 0 2 1 3 2 2 2 5 3 31 1 16 1 32 2 35 0 4 2 29 2 48 1 4 1 9 2 11 3 9-3 9-8 0-7-14-10-40-10-94 1-32 1-36-1-37-2-2-18-6-20-6-2 1-2 2-2 9 3 27 5 112 3 117 0 2-2 6-3 10-1 6-3 8-9 11-4 3-8 2-12-2l-2-2-7 6-8 6c-1 0 1 2 3 1 1 0 6 0 11-1zm472-8c0-1 1-2 1-4 0-1 1-2 1-4 3-2 2-4 0-5-1 0-4-2-6-4-5-6-8-2-8 9 0 5 0 6 2 7 3 2 8 2 10 1zm46-2c5-2 5-4 1-4-4 1-9-1-8-4 0-3-4-4-6-1-3 5-3 5-14 2-7-2-8-1-7 3 1 6 1 6 17 6 10 0 15-1 17-2zm-71-5c0-1 0-2-1-2-2 0-3 2-2 3 0 2 2 1 3-1zm88-1c2-3 1-3-5-2s-7 3-3 4h4c1 1 3 0 4-2zm-529-4c1-3 2-8 2-13 1-5 2-11 2-13 1-5 1-41 0-57v-75s3-2 7-4c3-2 6-5 7-6 1-2-3-5-8-6-3 0-7-1-9-3-9-4-8-12-9 81v89c-1 5-1 6 1 7 0 1 2 3 2 4 1 2 1 2 2 1s2-3 3-5zm890-2c-1-2-5-3-5-1 0 1 1 2 2 3 2 2 3 1 3-2zm47-21c1-1 2-3 2-3-1-2-6-2-8 0-2 1-2 2-1 3 2 3 5 2 7 0zm47-1c0-3-1-14-4-21-1-3-2-8-2-11 0-4-1-6-3-11-8-14-15-24-17-24s-1 5 2 9c2 4 4 10 9 22 1 3 2 9 3 12 0 4 2 8 3 10 1 1 3 5 4 8 0 3 1 6 2 7 0 2 2 1 3-1zm-968-10c1-1 1-7 0-13v-13c0-1 0-18-1-39-1-29-1-38-3-39-1-1-1-1-2 0 0 3 1 62 3 93 0 10 1 13 1 13 1 0 2-1 2-2zm658-8c1-3 1-5-1-4s-5 6-5 7c1 1 4 0 6-3zm49-5c1-1 2-3 1-4 0-1 0-1-8-1-6-1-7 0-7 1s1 2 4 3c2 1 4 1 5 2 2 1 2 1 5-1zm271-33c0-2-3-4-4-4-2 1-2 4-1 6 2 1 5 0 5-2zm-165-85c2 0 4 1 6 2 3 2 3 2 6 1 2-2 2-2 2-10s0-9-3-11c-2-2-3-3-3-6s0-3 3-5c8-3 8-10-1-27-2-4-4-7-5-7 0 0-2 1-3 3-3 3-7 3-10 0-1-2-1-4-1-5 1-3 5-5 8-5 3 1 4-2 1-7-2-3-2-3-5-3-7 2-8 2-9 1-3-3-2-8 0-11 3-3 2-5-7-9-1 0-2-2-4-4-2-4-11-12-13-12-1 0-3 1-4 3-3 3-6 3-9 0-2-2-2-5 0-8 0-1 1-3 1-3 0-1-13-11-20-16-6-3-8-4-12-4s-7-2-8-6c0-4-4-6-11-8-3-1-4-1-6 0-3 3-6 2-9 0-2-2-3-3-7-3-5 0-6 1-4 5 1 4 1 4-1 7-4 4-4 5 1 7l8 4c8 6 18 11 22 11s7 1 7 5c2 6 15 14 18 10 0-1 1-2 3-2 6-2 10 6 5 11l-2 2 3 3c1 1 4 3 6 4s3 3 4 6c0 2 2 6 4 9 1 3 3 5 3 6 0 0 2 3 3 5 6 8 23 45 26 54 4 10 6 15 8 17 1 2 2 2 4-1 2-2 4-3 5-3zm34 1c2-2 3-3 3-5s2-7 3-11c4-7 9-23 9-26s6-22 10-29l2-6-2-5c-2-3-4-7-6-8-1-1-3-5-5-7-1-3-4-7-6-8-4-3-12-12-16-20-6-9-10-15-25-30-14-14-19-18-31-25-3-2-8-6-12-8-4-3-8-6-10-7-7-5-30-12-49-16-5-1-14-3-19-4-17-4-20-4-30-4-12 1-19 3-24 7-3 1-6 3-8 4-1 1-3 2-4 3-1 0-4 2-7 3-4 2-5 3-6 7-1 2-4 8-9 13-4 5-7 10-7 10 0 1 3 2 7 2 7 1 18 3 24 5 2 1 6 2 8 2 4 0 4 0 5 3s4 5 8 5c2 0 5-2 9-5 8-7 10-8 21-9 13-1 28 0 37 4 3 2 11 5 16 7 13 6 17 8 23 13 6 6 13 12 22 18 11 9 33 30 36 36 6 11 8 14 13 20s8 11 12 21c3 9 4 18 3 34-2 18-1 21 5 16zm-872-61c2-8 3-40 3-58-1-26-4-81-5-83 0-1 0-1-1 0s-2 57-1 79c2 27 2 42 2 53 0 7 0 11 1 11 0 0 1-1 1-2zm13-2c1-5 3-7 6-7s6 3 6 5 1 3 1 4c2 1 18 1 19 0 1-2-1-12-3-14-1-2-3-2-7-3-7 0-9-1-10-5-1-3-1-3-4-3-6 0-12 5-13 11-1 3-1 6 0 8 3 9 4 10 5 4zm50 1c4-5 6-5 10-1 3 3 4 3 10 3 8 0 10-1 9-5 0-3 0-4 2-6 4-4 8-2 10 5l1 4 6-1c12 0 29-3 32-5 4-1 4-1 6 0 4 3 4 3 28-9 4-2 7-4 8-4 0-1-1-2-2-3-1-2-1-4-1-7 1-6-1-16-5-22-1-3-2-5-2-9 0-3-1-5-2-6-2-3-2-2-6 1-2 1-4 2-8 2-5 0-13 2-18 5-3 2-7 4-10 4-8 3-8 4-7 7 4 4 1 10-4 10-3 0-5-3-5-8 0-3 0-3-2-3-1 1-4 2-8 3-8 3-9 3-9 8 0 3 0 5-1 6-4 2-9 0-10-4s-9-3-17 1c-1 0-2 2-2 4 0 5-1 7-5 7-2 0-4-1-5-3-2-4-2-4-11-3-8 1-9 2-8 4 0 1 2 1 6 1 6 0 9 2 11 10 2 6 2 9 0 12-3 4-2 5 2 5 3 0 4-1 7-3zm141-30c2-2 2-7 1-9-3-2-6 0-6 3 0 4 2 8 3 8 0 0 2-1 2-2zm243-1c-2-1-11-5-21-10s-19-10-21-11c-8-5-11-6-27-15-18-9-19-9-21-13-2-3-16-14-18-14-1 0-2 2-2 3-1 3-1 23 0 25 0 0 4 2 7 4 4 2 9 5 12 6 8 6 20 13 26 14 6 2 17 4 33 5 9 1 14 1 22 4 12 4 14 5 10 2zm-418-8c7-5 8-7 8-12 0-3-1-3-3-4-3-1-5 1-5 5s-6 6-10 2c-1-2-1-2 0-6 1-2 1-4 0-7 0-2-2-6-2-10l-2-6 2-3c2-1 3-3 4-5 0-1 5-4 10-6l8-4-1-4v-23c0-14 0-19-1-21-1-1-7-1-12 0-6 2-7 2-9-43 0-10 0-18-1-18v-38c0-35 0-38 1-41 2-1 2-3 2-6-2-6 3-8 9-4 4 3 10 5 11 4 0-1-1-2-3-4s-3-3-2-5c0-3-1-4-3-3-1 0-4 1-7 1-7 1-11 4-12 9-1 2-2 4-4 4-2 1-3 1-3 7-1 3-1 14 0 25 0 11 0 31 1 46 0 14 0 30 1 36 4 40 5 71 5 106 0 23 0 26 2 28 5 4 7 5 8 5s4-2 8-5zm162 3s0-4-1-7c-2-10-4-12-7-7-1 2-1 3 0 7 2 8 6 12 8 7zm-140-13c1-1 1-2-2-5-2-4-5-5-7-3-1 2 0 3 3 4 1 1 2 2 2 4 0 3 2 4 4 0zm150-3c1-1 1-2 0-8-1-9-2-10-8-9h-5c0 1 6 17 7 17 2 1 4 1 6 0zm-131-7c1-7 0-8-4-7-5 1-6 3-4 5 1 1 2 3 3 5 3 6 5 4 5-3zm27 3c3-4 5-5 10-3 2 1 4 1 10-2 4-1 8-3 9-4 1 0 4-2 7-4l6-3-1-5c0-4 0-5 2-7 2-3 5-2 8 1 3 4 4 4 8 1 1-1 4-2 6-3 1-1 4-3 7-6l4-4h-6c-4 1-8 1-10 2-2 0-7 1-11 2-5 1-10 2-12 3s-6 3-9 3c-3 1-7 2-9 3l-3 1 3 3c3 2 4 7 1 9-2 3-4 2-8 0-1-2-4-3-5-3-4 0-10 5-11 8 0 2-1 3-2 4-2 2-1 6 2 7 0 0 2-2 4-3zm86-10c0-3-2-5-4-5-1 0-2 5 0 6 1 2 4 1 4-1zm517-24c0-1-1-2-1-3-1 0-3 2-2 4 0 2 3 1 3-1zm-512-4c1-1 4-2 6-2s3 0 3-2c-1-1-1-1-5-1-5 0-11 3-12 5 0 1 5 1 8 0zm-143-15c1-5 3-28 3-31-1-3-4-3-4 0-1 4-2 32-1 32 1 2 2 1 2-1zm22-3c1-1 1-6 0-17 0-9-1-31-1-49-2-69-4-119-6-125 0-3-3-7-4-10-8-11-14-14-27-14-9 0-10 0-15 2-6 4-13 11-13 14 0 1-1 4-2 6-2 5-3 17 0 17 1 0 1-1 1-2 0-2 1-4 2-4 4-4 5-5 5-7 0-1 1-3 3-4s4-4 6-5c4-3 11-4 20-1s12 6 14 11c1 3 2 7 3 10s1 9 1 16c0 9 0 10-1 10s-2 1-3 2c-2 2-3 3-5 2-5 0-8 3-6 6 0 1 1 3 1 4 0 3 2 3 4 1 2-3 6-2 5 1 0 2-1 8-2 12 0 3-5 3-6-1-3-5-6-3-6 3 0 2 3 10 4 10 2 0 10-5 10-7 0-1 4-3 6-3 2 1 1 3-2 6-2 3-2 5 1 9s3 14 0 18c-1 3-1 3 1 8 2 4 2 6 2 19 1 8 1 17 2 20 1 5 1 6 0 8-2 2-2 4-1 10 1 3 1 10 2 14 1 10 4 14 7 10zm-37-65c1-2 1-3 0-4-1-2-3-2-4 1-1 5 2 6 4 3zm6-14c1-1 1-2-1-3-3-3-5-5-5-10-1-5 0-6 4-6 6 1 9 0 9-1s-1-1-3-1-4-1-6-2c-2-3-2-3-1-6 1-2 1-4 0-5-1-3-5-4-6-3-2 1-3 16-2 22 1 2 1 7 1 10s0 6 1 6c1 2 8 1 9-1zm-40-25c-1-1-1 1-1 5 0 10 1 12 2 3 0-4 0-8-1-8zm1-40c1-10 1-20 2-22 0-4-1-5-3-2-2 2-2 5-2 14 1 6 1 16 1 21 0 17 2 9 2-11zm33 11c1-4 3-7 3-9 1-1 1-2-1-5-1-1-2-3-2-3 0-1 2-2 4-3 3-1 5-2 6-3 2-2 6-2 8 0 1 1 2 1 3 1 1-1-8-10-10-10-1 0-3 1-4 2-2 1-2 1-4 0-1-1-1-2 0-4s1-3-1-4c-3-2-6-3-6-1-1 2-1 43 0 45s2 0 4-6z"/>
    <path d="m1533 2019c3-4 7-5 7-3s-2 4-5 4c-3 1-3 1-2-1z"/>
    <path d="m1463 1970c-4-4-1-9 4-9s7 7 3 9c-3 2-5 2-7 0z"/>
    <path d="m1483 1962c-2-2-3-5 0-7 1-2 6-2 8-1 2 2 1 7-1 8-3 3-5 2-7 0z"/>
    <path d="m1455 1950c-3-2-2-7 1-9 2-1 3-1 5 0 5 3 3 11-2 11-2 0-4-1-4-2z"/>
    <path d="m1475 1942c-4-3-1-10 4-10 4 0 7 8 3 11-2 1-4 1-7-1z"/>
    <path d="m1495 1934c-1-1-2-3-2-4 0-3 3-6 6-6s6 3 6 6c0 1-1 3-2 4s-3 2-4 2-3-1-4-2z"/>
    <path d="m1447 1930c-4-4-1-10 4-10 4 0 7 7 3 10-2 3-5 2-7 0z"/>
    <path d="m1515 1926c-2-2-1-6 1-8 4-4 11 1 8 7-1 1-2 2-4 2s-4-1-5-1z"/>
    <path d="m1467 1922c-3-3-2-6 0-8 2-3 7-2 8 0 3 3 2 6 0 8-3 3-6 3-8 0z"/>
    <path d="m1419 1918c-4-3-1-10 4-10 2 0 5 4 5 6 0 5-6 8-9 4z"/>
    <path d="m1489 1915c-4-1-5-7-2-9 6-6 14 2 8 8-2 2-3 2-6 1z"/>
    <path d="m1438 1909c-3-4-1-9 5-9 4 0 7 7 3 10-2 3-6 2-8-1z"/>
    <path d="m1390 1906c-3-3-3-7 2-9 4-2 9 3 7 7-1 4-6 5-9 2z"/>
    <path d="m1506 1905c-1-3-1-6 2-9 6-3 12 5 7 9-3 3-7 2-9 0z"/>
    <path d="m1459 1902c-4-2-2-9 3-10 2-1 7 2 7 5s-4 7-6 7c-1 0-3-1-4-2z"/>
    <path d="m1410 1898c-1-1-2-3-2-5 0-5 8-7 10-3 3 3 2 6 0 8-3 3-5 3-8 0z"/>
    <path d="m1527 1897c-3-6 2-12 8-9 3 3 3 7 0 10-2 2-6 1-8-1z"/>
    <path d="m1480 1895c-4-2-4-9 1-11 2-1 6 0 7 3 2 3 1 6-1 7-3 2-4 2-7 1z"/>
    <path d="m1430 1890c-2-3-3-5 0-8 1-2 6-3 8 0 4 3 1 10-3 10-1 0-3-1-5-2z"/>
    <path d="m1382 1886c-2-2-3-4 0-7 2-3 6-3 8 0s1 6-2 8c-3 1-4 1-6-1z"/>
    <path d="m1498 1884c-1-2-1-3 0-5 3-6 11-4 11 2 0 3-1 4-2 5-3 2-7 1-9-2z"/>
    <path d="m1452 1883c-4-2-4-9 0-11 3-1 6 0 8 3 1 2 1 3 0 5-2 3-5 4-8 3z"/>
    <path d="m1402 1878c-2-2-1-6 1-8 4-4 11 1 8 6-1 2-2 3-4 3s-4-1-5-1z"/>
    <path d="m1520 1877c-2-1-3-6-1-8 3-2 7-2 9 1 2 2 2 3 1 5-2 4-5 5-9 2z"/>
    <path d="m1354 1873c-2-2-2-4 0-6s5-2 7 0c3 2 2 4 0 6-2 3-5 2-7 0z"/>
    <path d="m1471 1873c-1-1-2-3-2-4 0-3 3-6 6-6s6 3 6 6c0 6-7 8-10 4z"/>
    <path d="m1422 1869c-2-3-1-5 1-7 5-5 11 1 8 7-1 1-2 2-4 2-3 0-4-1-5-2z"/>
    <path d="m1540 1869c-1-2-2-4-1-5 2-5 7-7 9-3 3 3 2 6-1 8-3 3-4 3-7 0z"/>
    <path d="m1374 1866c-1-1-1-3-1-5 1-7 10-6 10 1 0 1-1 3-1 4-2 1-6 1-8 0z"/>
    <path d="m1490 1865c-4-6 5-14 9-8 2 2 3 7 1 9s-8 1-10-1z"/>
    <path d="m1442 1861c-2-3-1-6 3-9s9 3 7 8c-2 4-7 4-10 1z"/>
    <path d="m1560 1860c-3-6 2-11 7-8 3 2 4 6 1 8-2 3-6 2-8 0z"/>
    <path d="m1513 1858c-3-1-3-3-3-6 2-6 9-6 11-1 2 4-3 9-8 7z"/>
    <path d="m1463 1853c-1-1-2-3-2-4s1-3 2-4 3-2 4-2 3 1 4 2 2 3 2 4-1 3-2 4-3 2-4 2-3-1-4-2z"/>
    <path d="m1533 1848c-2-1-3-6-1-8s7-1 9 2c1 2 1 3 0 5-2 3-6 4-8 1z"/>
    <path d="m1484 1845c-4-3-2-10 4-10 5 0 7 8 3 10-3 2-4 2-7 0z"/>
    <path d="m1454 1831c-2-3-2-3-1-6 2-4 12-1 12 4s-7 7-11 2z"/>
    <path d="m1476 1824c-2-1-2-6-1-8 2-2 8-1 9 1 3 6-4 12-8 7z"/>
    <path d="m1468 1804c-3-2-2-7 1-9 2-1 3-1 5 0 5 3 3 11-2 11-2 0-4-1-4-2z"/>
    <path d="m1487 1796c-2-1-5-5-7-8-4-6-4-11-1-18 2-7 1-11-3-13-6-2-8-6-3-11 2-2 2-4 1-7 0-3 0-3-4-3-3 1-4 1-7-2-2-2-2-5 1-8 4-3 8 0 10 5 0 2 1 4 3 4 2 2 7 14 9 23 1 2 2 5 3 6 2 4 1 8-2 13-2 2-3 4-3 6 0 3 1 3 5 3 5 0 8 2 8 6 0 3-3 7-5 7-1 0-3-1-5-3z"/>
    <path d="m1460 1783c-4-3-1-9 3-9 3 0 6 3 6 6 0 4-6 7-9 3z"/>
    <path d="m1647 1779c-1 0-2-1-2-3-1-3 1-7 5-7 2 0 6 3 6 6s-5 6-9 4z"/>
    <path d="m1667 1770c-3-2-2-5 0-7 3-3 6-2 8 1 1 2 1 3 0 5-2 3-6 4-8 1z"/>
    <path d="m1500 1767c-3-2-2-6 0-8s3-2 6-1c3 2 4 3 4 6 0 4-7 7-10 3z"/>
    <path d="m1452 1764c-1-1-2-2-2-5 0-2 1-3 3-4 5-3 10 4 6 8-1 2-5 3-7 1z"/>
    <path d="m1687 1762c-2-2-3-6-1-8 2-1 7-1 8 1 3 2 2 6 0 7-3 2-5 2-7 0z"/>
    <path d="m1403 1760c-3-2-3-7 0-9s6-1 7 1c3 3 2 6 0 8s-4 3-7 0z"/>
    <path d="m1354 1755c-3-3-3-4 0-7 2-2 6-3 8-1 2 3 2 6 0 8-4 4-5 4-8 0z"/>
    <path d="m1707 1754c-5-4 1-12 7-9 3 3 3 7 0 9s-4 2-7 0z"/>
    <path d="m1541 1751c-4-3-1-10 4-10 2 0 5 2 5 5 1 1 0 3-1 4-3 3-5 4-8 1z"/>
    <path d="m1658 1750c-3-4-3-4 1-8 1-1 3-2 4-1 5 1 7 6 3 9-2 3-5 2-8 0z"/>
    <path d="m1375 1748c-1 0-2-1-2-3-2-6 6-10 10-4 1 2 1 3 0 5-2 2-5 4-8 2z"/>
    <path d="m1492 1747c-4-4-1-10 4-10 3 0 6 3 6 7s-7 7-10 3z"/>
    <path d="m1561 1742c-3-3-2-5 0-7 5-5 12 1 9 7-3 3-7 3-9 0z"/>
    <path d="m1679 1742c-4-3-2-10 3-10 6 0 8 7 4 10-1 1-3 2-3 2-1 0-3-1-4-2z"/>
    <path d="m1395 1739c-3-2-2-7 0-8 3-3 5-2 7 0 3 3 3 6 0 8s-5 2-7 0z"/>
    <path d="m1513 1739c-3-2-4-5-1-8 1-2 6-3 8 0 3 2 2 7 0 8-3 2-4 2-7 0z"/>
    <path d="m1630 1738c-1-1-2-3-2-4 0-3 3-6 6-6 6 0 8 7 4 10-3 3-6 2-8 0z"/>
    <path d="m1346 1735c-4-4-1-9 4-9 3 0 5 2 5 6 0 1 0 3-1 3-2 3-6 2-8 0z"/>
    <path d="m1582 1735c-3-2-3-7 0-9 3-3 5-2 7 0 5 5-1 13-7 9z"/>
    <path d="m1699 1733c-3-2-2-5 0-7 5-5 11 1 8 7-1 2-6 3-8 0z"/>
    <path d="m1533 1730c-2-2-2-6 0-8 3-3 11 1 9 5-1 5-6 6-9 3z"/>
    <path d="m1650 1729c-1-1-2-3-2-4 0-2 4-5 6-5 3 0 6 3 6 6s-3 6-6 6c-1 0-3-1-4-3z"/>
    <path d="m1366 1727c-1-1-2-3-2-4 0-3 3-6 6-6 1 0 3 1 4 2s2 3 2 4c0 3-3 6-6 6-2 0-3-1-4-2z"/>
    <path d="m1484 1727c-2-1-3-7-1-9s8-1 9 1c3 3 2 6 0 8s-5 3-8 0z"/>
    <path d="m1602 1726c-4-3-2-10 4-10 3 0 6 3 6 6 0 2-3 6-6 6-1 0-3-1-4-2z"/>
    <path d="m1718 1725c-3-3-2-6 0-7 5-4 10-1 10 4 0 3-2 5-6 5-2 0-3-1-4-2z"/>
    <path d="m1553 1722c-1-1-2-3-2-4 0-2 3-6 6-6 2 0 6 4 6 7 0 4-7 7-10 3z"/>
    <path d="m1670 1722c-2-3-3-5 0-8 1-3 6-3 8 0 3 2 2 7 0 8-3 3-5 2-8 0z"/>
    <path d="m1388 1720c-4-2-4-8-1-10 4-2 9 1 9 5 0 2-3 6-5 6-1 0-2-1-3-1z"/>
    <path d="m1622 1718c-4-4-1-10 4-10 3 0 6 3 6 6 0 2-4 6-6 6-1 0-3-1-4-2z"/>
    <path d="m1456 1714c-4-4-1-9 4-9 1 0 3 1 3 2 2 1 2 6 1 8-2 2-6 1-8-1z"/>
    <path d="m1573 1714c-1-1-2-3-2-4 0-3 3-6 6-6 5 0 8 7 4 10-2 3-6 2-8 0z"/>
    <path d="m1691 1714c-2-1-3-7-1-9 2-1 7-1 8 1 2 1 3 6 1 8-3 2-6 2-8 0z"/>
    <path d="m1407 1711c-4-3-2-10 4-10 3 0 5 3 5 6 0 5-5 7-9 4z"/>
    <path d="m1644 1711c-1-1-3-2-3-3-3-6 5-11 9-6 5 5 0 11-6 9z"/>
    <path d="m1359 1708c-3-2-3-7-1-9 3-3 5-3 8 0 1 1 2 3 2 4 0 2-3 6-6 6-1 0-2-1-3-1z"/>
    <path d="m1476 1706c-2-1-2-6-1-8 2-1 8-1 9 1 1 0 1 2 1 4 0 1 0 3-1 3-2 2-6 2-8 0z"/>
    <path d="m1594 1706c-3-3-3-7 0-9 5-4 12 3 8 8-3 3-6 4-8 1z"/>
    <path d="m1545 1702c-4-4-1-10 4-10 3 0 6 4 6 6 0 3-3 6-6 6-2 0-3-1-4-2z"/>
    <path d="m1662 1701c-1 0-1-2-1-3 0-4 2-6 6-6 2 0 3 1 4 2 1 3 1 6 0 8-2 1-8 1-9-1z"/>
    <path d="m1378 1698c-1 0-1-2-1-3 0-4 2-6 5-6s6 3 6 6c0 4-7 7-10 3z"/>
    <path d="m1496 1698c-3-2-2-7 1-9 5-3 11 3 8 8-1 2-2 3-4 3s-5-1-5-2z"/>
    <path d="m1614 1698c-2-1-3-7 0-9 2-2 6-1 8 1 3 3 2 6 0 8s-5 3-8 0z"/>
    <path d="m1448 1694c-4-4-1-9 4-9 2 0 5 3 5 6 0 2-3 5-6 5-1 0-2-1-3-2z"/>
    <path d="m1565 1694c-4-4-1-10 4-10s8 7 4 10c-2 3-6 2-8 0z"/>
    <path d="m1683 1693c-2-1-2-6-1-8 2-1 7-1 8 1 3 2 2 5 0 7s-5 2-7 0z"/>
    <path d="m1399 1690c-1 0-2-2-2-3 0-2 1-4 2-4 0-1 2-2 4-2 1 0 3 1 3 2 1 0 2 2 2 4 0 1-1 3-2 3 0 1-2 2-3 2-2 0-4-1-4-2z"/>
    <path d="m1635 1690c-3-2-4-6-1-8 4-4 10-1 10 4 0 2-4 6-6 6 0 0-2-1-3-2z"/>
    <path d="m1585 1685c-2-3-2-4 0-7 1-1 2-2 4-2 4 0 6 2 6 6 0 6-6 8-10 3z"/>
    <path d="m1654 1682c0-1-1-3-1-4 0-2 1-4 1-5 1 0 3-1 5-1 1 0 3 1 4 1 0 1 1 3 1 5 0 1-1 3-1 4-1 0-3 1-4 1-2 0-4-1-5-1z"/>
    <path d="m1373 1680c-1 0-2-1-3-2-4-5 4-12 8-7 4 4 0 11-5 9z"/>
    <path d="m1606 1678c-2-1-3-7-1-9 3-2 6-2 8 0 4 3 4 6 1 9-2 2-5 3-8 0z"/>
    <path d="m1674 1674c0-1-1-3-1-5s1-3 3-5c2-1 3-1 5 0 5 3 4 10-2 11-2 0-4 0-5-1z"/>
    <path d="m1391 1670c-3-2-2-5 0-7 3-3 7-2 9 1 1 2 1 3 0 5-2 4-7 4-9 1z"/>
    <path d="m1627 1670c-4-3-4-7 1-10 3-1 4-1 6 1 5 5-1 14-7 9z"/>
    <path d="m1579 1667c-4-2-5-9 0-11 2-1 6 0 7 3 3 5-1 10-7 8z"/>
    <path d="m1647 1662c-3-2-3-6 0-9 2-2 4-3 7 0 2 1 3 6 0 8-1 2-5 2-7 1z"/>
    <path d="m1481 1658c-3-2-3-6 0-8 5-3 10 2 8 6-1 2-2 3-2 3s-1 0-2 1c-1 0-3-1-4-2z"/>
    <path d="m1598 1657c-3-2-2-7 1-9 2-1 3-1 5 0 3 2 4 5 3 8-2 3-7 4-9 1z"/>
    <path d="m1432 1654c-4-2-2-9 3-9 3 0 6 3 6 6 0 2-3 5-5 5-1 0-3-1-4-2z"/>
    <path d="m1667 1653c-3-3-2-7 1-9 2-1 3-1 5 0s3 3 3 4c0 6-6 9-9 5z"/>
    <path d="m1502 1651c-4-2-3-8 0-10 2-1 3-1 5 0 6 4 1 13-5 10z"/>
    <path d="m1617 1649c-2-4-1-7 3-9 1 0 3-1 3-1 2 0 5 4 5 6 0 6-8 8-11 4z"/>
    <path d="m1453 1647c-5-2-3-10 3-10 3 0 5 2 5 6 0 2-1 3-3 4-1 1-2 1-2 1s-1-1-3-1z"/>
    <path d="m1521 1641c-5-5 2-12 7-7 2 1 2 6 1 8-2 2-6 1-8-1z"/>
    <path d="m1638 1642c-2-2-1-8 1-9 3-3 5-2 7 0s3 6 0 8c-1 2-6 2-8 1z"/>
    <path d="m1474 1639c-5-2-5-9-1-11 4 0 7 1 8 3 2 5-2 10-7 8z"/>
    <path d="m1423 1633c-1-1-2-4-2-5 0-2-1-5-2-7-2-2-3-3-5-3-7 0-8-5-2-10 3-3 4-3 11-4 8-1 10-2 8-5-1-2-1-3 0-6s1-3-2-6-4-7-1-9c2-2 4-2 7-1 4 2 9 0 10-4 3-5 5-5 13-5h7l1-4c2-4 5-5 12-3 8 3 8 3 9-2 0-5 1-6 3-7 3-1 3-1 5 0 4 3 5 6 2 9-1 2-2 3-1 4 1 2 11 6 15 7 4 0 4 0 4-2 0-3 2-6 5-7 2 0 3 0 5 3 3 3 3 4 0 7-3 4-2 5 6 8 6 2 8 5 6 6-1 1-2 2-2 3 0 2-3 5-6 5s-4-2-5-7c0-4-1-4-6-6-6-2-7-2-11-1-6 2-8 2-11 1-4-4-10-1-10 3 0 3-2 6-6 7-2 0-3 0-4-3-1-2-2-4-2-6v-3h-7c-9 1-19 6-21 9-1 1-1 3 0 5 0 3 1 3 3 3 3 0 4-1 5-4 3-6 10-6 11-1 1 3 4 3 8 2 3-1 4-1 6 0 8 4 13 6 18 6s5 0 6-3c1-2 2-4 3-4 3-2 7 0 8 3 1 2 2 3 3 3 0 1 4 0 8-1 11-2 31-3 34-2 2 1 4 2 4 3 1 2 3 3 5 3 1 1 3 2 4 3 3 2 2 6 0 8-1 2-2 3-1 6 0 3 0 5-2 6-2 2-5 3-7 0-2-1-3-7-1-7 2-2 1-4-3-6-6-4-11-4-15 0-4 3-6 4-11 2-4-2-8 0-10 4-1 5-5 6-9 4-6-4-11-2-11 2 0 9-10 10-12 1 0-3-1-3-7-5s-10-2-13-1c-2 1-3 0-6-2-1-1-3-2-4-2-3 0-6 3-7 8-2 4-4 5-10 3-2-1-5-2-7-2s-3 1-3 5c-1 7-6 9-10 4z"/>
    <path d="m1541 1633c-2-2-3-4 0-7 1-2 6-3 8-1s1 8-1 9c-3 2-5 1-7-1z"/>
    <path d="m1659 1633c-4-4-1-10 4-10 3 0 5 3 5 6 0 5-6 8-9 4z"/>
    <path d="m1609 1629c-2-4-1-7 2-9 3-1 3-1 6 0 5 3 3 11-3 11-2 0-3-1-5-2z"/>
    <path d="m1631 1621c-3-2-3-7 0-9 4-2 9 0 9 5 0 3-3 6-5 6-1 0-3-1-4-2z"/>
    <path d="m1651 1613c-1-1-2-2-2-4 0-7 9-8 11-1 1 1 0 3-1 4-3 3-5 4-8 1z"/>
    <path d="m1623 1602c-2-1-3-5-2-7 2-6 11-4 11 2 0 4-5 7-9 5z"/>
    <path d="m1574 1597c-3-2-3-6 1-9 2-1 3-1 5 0 3 2 4 7 1 9s-4 2-7 0z"/>
    <path d="m1409 1595c-5-1-4-8 0-10s9 3 8 7c-1 1-5 4-6 4 0 0-1 0-2-1z"/>
    <path d="m1643 1593c-4-3-2-10 4-10 5 0 7 8 3 10-1 1-3 2-3 2-1 0-3-1-4-2z"/>
    <path d="m1594 1589c-3-3-3-6 0-8 3-3 6-2 8 0 4 4 2 8-3 10-2 0-3 0-5-2z"/>
    <path d="m1546 1585c-2-2-3-3-3-4 0-2 5-6 6-6 4 0 8 7 5 10-3 2-6 2-8 0z"/>
    <path d="m1616 1582c-6-3-4-11 3-11 5 0 7 7 3 10-3 2-4 2-6 1z"/>
    <path d="m1566 1577c-4-3-2-10 4-10 4 0 7 7 3 10-2 2-4 2-7 0z"/>
    <path d="m1635 1573c-2-1-3-6 0-8 3-4 9-1 9 3 0 5-5 8-9 5z"/>
    <path d="m1588 1570c-2 0-4-3-4-6 0-5 8-7 10-3 3 3 2 6-1 8-2 2-3 2-5 1z"/>
    <path d="m1419 1565c-1 0-1-2-1-3 0-4 2-6 5-6 5 0 8 6 4 9-2 2-6 2-8 0z"/>
    <path d="m1538 1565c-4-3-2-10 3-10 6 0 8 7 4 10-1 1-3 2-3 2-1 0-3-1-4-2z"/>
    <path d="m1607 1560c-3-5-2-9 4-9 3 0 5 2 5 6 0 5-6 7-9 3z"/>
    <path d="m1440 1558c-2-3-3-6 0-8 2-3 6-2 9 0 2 1 2 2 1 4-1 3-5 6-7 6 0 0-2-1-3-2z"/>
    <path d="m1559 1558c-3-2-4-7-1-9 3-4 9-1 9 4 0 4-4 7-8 5z"/>
    <path d="m1509 1553c-2-3-3-6 0-8 4-4 10-1 10 4 0 2-4 6-6 6-1 0-3-1-4-2z"/>
    <path d="m1460 1548c-1-1-2-3-2-3 0-2 4-6 6-6 3 0 6 4 6 6 0 3-3 6-6 6-1 0-3-1-4-3z"/>
    <path d="m1578 1548c-2-3-2-5 0-7 3-4 10-1 10 4s-8 7-10 3z"/>
    <path d="m1529 1545c-2-3-3-5 0-8 3-4 10-2 10 3 0 3-1 4-4 6-3 1-3 1-6-1z"/>
    <path d="m1482 1542c-3-2-4-7-1-9 3-4 9-1 9 4 0 4-4 7-8 5z"/>
    <path d="m1432 1537c-3-3-3-6 0-8s5-2 7 0c3 2 2 7 0 8-3 3-5 2-7 0z"/>
    <path d="m1550 1536c-2-1-2-6-1-8 1 0 3-1 5-1 3 0 5 2 5 5s-2 6-5 6c-2 0-4-1-4-2z"/>
    <path d="m1500 1532c-3-5 0-9 5-9 2 0 4 1 5 3s1 3 0 5c-3 4-8 4-10 1z"/>
    <path d="m1452 1529c-2-3-3-5 0-8 3-4 10-1 10 4 0 2-3 6-6 6l-4-2z"/>
    <path d="m1520 1524c-3-6 2-12 8-9 5 2 3 11-3 11-2 0-3-1-5-2z"/>
    <path d="m1473 1521c-4-3-2-10 4-10 5 0 7 7 3 10-3 2-4 2-7 0z"/>
    <path d="m1493 1512c-3-3-2-7 0-8 3-2 5-2 7 0 4 4 1 10-4 10-1 0-3-1-3-2z"/>
    <path d="m1893 1794c-1-3-1-4 1-6s3-4 3-4c1 0 1 6 0 10s-3 4-4 0z"/>
    <path d="m885 1653c0-3 0-5 2-5 1 0 2 1 2 3s0 3-1 3-2-1-3-1z"/>
    <path d="m1706 1637c-2-2-1-7 1-9 4-2 6-1 8 2s2 3 1 5c-2 3-8 4-10 2z"/>
    <path d="m1699 1616c-5-4 1-11 7-8 2 1 3 7 1 9-2 1-7 1-8-1z"/>
    <path d="m1719 1609c0-1-1-3-1-4 0-4 2-6 5-6s6 3 6 6c0 4-7 7-10 4z"/>
    <path d="m1690 1595c-1-2-1-3 0-5s2-2 5-2 4 0 5 2 1 3 0 5c-2 2-3 3-5 3s-3-1-5-3z"/>
    <path d="m1682 1575c-1-2-1-3 0-5 3-5 11-3 11 3 0 5-8 7-11 2z"/>
    <path d="m1675 1556c-3-3-3-5 1-8 6-5 12 3 7 8-1 1-3 2-4 2s-3-1-4-2z"/>
    <path d="m1639 1524c-4-4-1-10 4-10 3 0 6 3 6 6 0 2-5 6-6 6s-3-1-4-2z"/>
    <path d="m1611 1511c-3-2-2-7 0-8 4-2 9 0 9 4 0 5-6 8-9 4z"/>
    <path d="m1e3 1579c-2-2-3-5 0-8 3-4 10-1 10 4 0 3-4 6-6 6-1 0-3-1-4-2z"/>
    <path d="m956 1574c-4-3-1-9 3-9 3 0 6 3 6 5 0 3-4 6-6 6-1 0-2-1-3-2z"/>
    <path d="m1034 1571c-2-2-2-4 0-7 1-2 6-3 8-1 0 1 1 3 1 5 0 1-1 3-1 4-2 2-6 1-8-1z"/>
    <path d="m986 1567c-4-4 0-11 5-9 4 1 5 6 2 9-2 2-5 3-7 0z"/>
    <path d="m1015 1560c-2-3-2-3-1-6 1-4 5-5 9-3 3 2 3 6 0 9s-5 3-8 0z"/>
    <path d="m1046 1552c-4-3-1-9 3-9 3 0 6 3 6 6 0 4-6 7-9 3z"/>
    <path d="m1027 1541c-3-3-2-7 1-9 2-1 3-1 5 0 5 3 3 11-2 11-2 0-3-1-4-2z"/>
    <path d="m1345 2014c0-1-4-4-7-6-4-2-9-6-11-8-3-2-5-4-6-4-1-1-3-3-4-5-1-3-6-10-10-17-9-13-10-15-12-24 0-4-1-5-6-7-6-3-9-9-9-14s4-3 7 5c1 4 3 5 5 6 5 2 18 15 18 18s2 6 9 16c8 12 13 19 22 30 5 5 8 9 8 10s-3 1-4 0z"/>
    <path d="m964 1682c-2-4 0-8 5-9 5 0 8 6 4 10-3 3-7 3-9-1z"/>
    <path d="m1044 1680c-3-1-3-6 0-8 2-3 7-2 8 0 3 3 2 5 0 8-3 2-5 3-8 0z"/>
    <path d="m995 1675c-1-3-1-6 0-8 2-1 7-1 8 1 4 3 1 9-4 9-2 0-3-1-4-2z"/>
    <path d="m1075 1673c-3-2-4-5-1-8 1-2 6-3 8-1 2 3 2 6 0 8-3 4-4 4-7 1z"/>
    <path d="m943 1673c-1 0-1-2-1-4 0-3-1-4-3-6-1-1-3-2-4-2-1 1-4 0-5-1-2-1-3-2-3-4s1-5 2-6c2-3 5-2 9 3 3 4 9 8 13 8s6 6 4 10c-1 2-11 4-12 2z"/>
    <path d="m1055 1660c-3-3-3-4 0-7s5-3 8 0c2 2 3 5 0 8-2 3-5 3-8-1z"/>
    <path d="m1086 1655s-1-2-2-3c-1-2-1-3 0-4 3-5 9-4 11 1 1 4-5 9-9 6z"/>
    <path d="m1116 1648c-5-3-2-11 3-11 3 0 6 4 6 6s-3 6-6 6c-1 0-2-1-3-1z"/>
    <path d="m1017 1637c-1-2-1-3 0-5s2-2 5-2 4 0 5 2 1 3 0 5c-2 2-3 3-5 3s-3-1-5-3z"/>
    <path d="m970 1634c-3-2-3-5 0-8 2-2 5-3 7 0 3 2 2 6 0 8s-4 2-7 0z"/>
    <path d="m921 1631c-1-1-3-2-5-2-3 0-4 0-5-3-2-5-3-5-5-6-3 0-5-4-5-7 1-1 2-3 4-4 1-1 3-2 5-3 3-3 5-1 9 6 3 6 4 7 6 8 2 0 4 2 5 3 1 3 1 3-1 6s-5 4-8 2z"/>
    <path d="m1127 1628c-4-3 0-11 4-9 4 1 5 2 5 5 0 5-6 8-9 4z"/>
    <path d="m1e3 1627c-4-4-1-10 4-10 4 0 7 7 3 10-2 3-5 2-7 0z"/>
    <path d="m950 1621c-1-2-1-3 0-5 2-3 7-4 9-2s2 7 0 8c-2 3-7 2-9-1z"/>
    <path d="m1157 1621c-3-2-2-7 1-9 2-1 3-1 5 0 2 2 3 3 3 5s-1 4-1 5c-2 2-7 1-8-1z"/>
    <path d="m1031 1621c-4-2-3-8 0-10 2-1 3-1 5 0 6 4 1 13-5 10z"/>
    <path d="m980 1614c-1-2-1-3 0-5s2-2 5-2 4 0 5 2 1 3 0 5c-2 2-3 3-5 3s-3-1-5-3z"/>
    <path d="m1061 1614c-5-3-3-11 3-11 4 0 7 6 4 9-2 2-4 3-7 2z"/>
    <path d="m1010 1607c-1-2-1-2 0-5 2-5 9-5 11 1 1 6-7 10-11 4z"/>
    <path d="m1089 1605c-2-4 0-9 4-9 3 0 6 3 6 6 0 4-8 7-10 3z"/>
    <path d="m1169 1604c-4-2-3-9 1-11 4 0 7 1 8 5 0 2 0 3-2 5-3 2-4 2-7 1z"/>
    <path d="m1071 1594c-1-1-2-3-2-4 0-4 7-7 10-4 1 2 1 7-1 8-2 3-5 2-7 0z"/>
    <path d="m1101 1587c-2-1-3-4 0-7 1-2 6-3 8-1 1 2 1 7-1 8-2 2-4 2-7 0z"/>
    <path d="m1180 1584c-3-2-2-7 0-9 4-2 8 0 9 5 0 5-6 8-9 4z"/>
    <path d="m1131 1580c-3-2-3-5 0-8s5-3 8 0 3 5 0 8c-2 2-5 3-8 0z"/>
    <path d="m1161 1573c-1-1-2-3-2-4s1-3 2-4 3-2 4-2c2 0 6 3 6 6l-2 4c-3 3-5 3-8 0z"/>
    <path d="m1144 1563c-2-1-3-3-3-5 0-4 1-6 6-6 2 0 3 1 4 3 3 5-2 10-7 8z"/>
    <path d="m1173 1554c-3-2-2-7 1-9 2-1 3-1 5 0 5 3 3 11-2 11-2 0-4-1-4-2z"/>
    <path d="m1347 1546c-5-3-10-5-10-6-1-1-6-12-6-13s2-3 4-5c5-5 13-9 21-10 5 0 7 0 12 3 9 4 10 6 8 14-1 3-3 8-3 12-1 5-2 6-5 7-6 3-11 2-21-2zm20-8c1-1 2-3 2-4 0-2-8-13-11-14-5-2-12 1-14 6 0 3 4 11 6 13 3 1 14 1 17-1z"/>
    <path d="m1156 1544c-2 0-4-3-4-6 0-5 8-7 10-3 3 3 2 5 0 8-3 2-3 2-6 1z"/>
    <path d="m1104 1537c-1-2-1-3 0-5 3-5 11-3 11 2 0 6-8 8-11 3z"/>
    <path d="m1183 1534c-1-2-1-3 0-5s2-2 5-2 4 0 5 2 1 3 0 5c-2 2-3 3-5 3s-3-1-5-3z"/>
    <path d="m1134 1530c-1-2-1-3 0-5 2-6 11-4 11 2s-7 8-11 3z"/>
    <path d="m1291 1525c-2-1-4-2-6-2-11 0-23-13-23-25 0-6 2-9 6-13 5-5 10-7 17-7 6 0 7 0 13 4 8 5 10 8 12 18 1 6 1 17-2 21-3 7-12 9-17 4zm4-10c6-2 7-3 7-9 0-4-1-6-4-9-4-5-12-9-16-9-4 1-8 6-8 11-1 6 1 12 4 12 2 0 4 1 5 3 2 3 2 3 12 1z"/>
    <path d="m1166 1524c-4-2-2-10 3-10 3 0 6 3 6 6s-3 6-5 6c-1 0-3-1-4-2z"/>
    <path d="m1117 1520c-4-4-2-10 4-10 3 0 6 3 6 6 0 2-5 6-6 6s-3-1-4-2z"/>
    <path d="m1147 1512c-1-1-2-3-2-4 0-5 8-7 11-3 3 6-5 12-9 7z"/>
    <path d="m1098 1508c-2-2-3-5 0-8 3-4 10-2 10 4 0 3-3 6-6 6-1 0-3-1-4-2z"/>
    <path d="m1177 1505c-3-3-2-7 2-9s9 3 7 8c-2 3-7 4-9 1z"/>
    <path d="m1128 1501c-1-1-2-3-2-4 0-3 3-6 6-6s6 3 6 6-3 6-6 6c-1 0-3-1-4-2z"/>
    <path d="m1160 1495c-5-2-5-5-2-9 3-2 6-3 8 0 3 2 2 6 0 8s-4 2-6 1z"/>
    <path d="m983 1488c-3-3-3-5 0-8 2-2 5-2 8 0 2 2 1 7-1 8-3 3-5 2-7 0z"/>
    <path d="m1189 1487c-4-2-2-10 3-10 4 0 6 2 6 5 0 4-3 7-5 7-1 0-3-1-4-2z"/>
    <path d="m1140 1482c-4-4-1-9 4-9 3 0 5 2 5 6 0 5-6 7-9 3z"/>
    <path d="m1013 1481c-3-2-3-6 1-9 2-1 3-1 5 0 3 2 4 7 1 9s-4 2-7 0z"/>
    <path d="m1091 1478c-1-1-2-3-2-4 0-3 3-6 6-6 1 0 3 1 4 2s2 3 2 4c0 3-3 6-6 6-2 0-3-1-4-2z"/>
    <path d="m1170 1475c-3-2-2-6 0-8s3-2 6-1c3 2 4 5 3 7-2 4-6 5-9 2z"/>
    <path d="m1042 1474c-3-3 0-10 5-10 2 0 5 3 5 6 0 4-7 7-10 4z"/>
    <path d="m1121 1471c-4-4-1-10 5-10 5 0 7 8 3 10-3 3-6 2-8 0z"/>
    <path d="m1073 1467c-4-3-2-10 3-10 4 0 6 2 6 6 0 3-3 6-5 6-1 0-3-1-4-2z"/>
    <path d="m1151 1463c-2-2-2-5 1-8 5-4 12 4 7 9-3 3-5 3-8-1z"/>
    <path d="m1102 1460c-1-1-1-3-1-5 1-8 11-7 11 0 0 2-1 4-1 5-2 1-8 1-9 0z"/>
    <path d="m1180 1455c-1-2-1-3 0-5 2-3 7-4 10-2 1 1 1 5 0 8-2 3-7 3-10-1z"/>
    <path d="m1133 1452c-3-3-2-7 0-9 3-1 6-1 9 2 3 6-5 12-9 7z"/>
    <path d="m1084 1448c-2-2-3-5 0-8 3-4 10-1 10 4 0 3-4 6-6 6-1 0-3-1-4-2z"/>
    <path d="m1163 1445c-1-1-2-3-2-4s1-3 2-4 3-2 4-2c2 0 6 3 6 5 0 3-4 7-6 7-1 0-3-1-4-2z"/>
    <path d="m1115 1441c-3-2-4-5-1-8 1-3 6-3 8 0 5 5-2 12-7 8z"/>
    <path d="m1144 1433c-1-1-2-3-2-4 0-2 5-6 6-6 3 0 6 4 6 6 0 6-7 8-10 4z"/>
    <path d="m1095 1429c-2-2-2-3-1-6 2-3 3-4 6-4 4 0 6 6 4 10-1 3-6 3-9 0z"/>
    <path d="m1174 1426c-3-3 0-10 4-10 3 0 6 3 6 6 0 5-7 8-10 4z"/>
    <path d="m1126 1422c-4-4-1-10 4-10 3 0 6 4 6 7-2 5-7 7-10 3z"/>
    <path d="m1077 1418c-2-1-3-6 0-8 2-3 7-2 8 0 3 3 2 5 0 8-3 2-5 3-8 0z"/>
    <path d="m1156 1415c-2-1-3-6 0-8 2-3 7-2 9 1 1 3 1 4-1 6-2 3-5 4-8 1z"/>
    <path d="m1107 1410c-3-3-2-7 2-9 2-1 3-1 5 1 3 2 4 4 2 8-2 3-7 3-9 0z"/>
    <path d="m1186 1407c-3-2-2-6 1-8l3-2 3 2c3 2 4 4 2 8-2 2-7 3-9 0z"/>
    <path d="m1058 1406c-3-3-3-5 1-8 1-1 3-2 4-1 5 1 6 5 3 9-2 3-5 3-8 0z"/>
    <path d="m1136 1402c-2-3-1-7 3-8 4-2 8 1 8 5 0 6-7 8-11 3z"/>
    <path d="m1088 1398c-3-4-1-9 5-9 5 0 7 8 3 10-3 3-6 2-8-1z"/>
    <path d="m1168 1397c-2-1-3-5-2-7 1-4 5-5 9-3 5 4 0 13-7 10z"/>
    <path d="m1959 1394c-9-4-34-28-44-41-4-5-7-9-9-11-1-1-4-5-8-9s-12-13-18-19c-11-11-22-24-27-32-2-3-6-8-10-12-12-13-20-23-26-34-4-5-7-10-8-10 0 0-5-4-11-9s-11-10-13-11c-1 0-4-4-7-7-9-12-11-14-13-14-3 0-11-5-13-8-2-4-8-20-8-22 0-4-2-5-8-5-10-2-27-7-35-13-8-4-15-13-23-29-5-11-11-17-31-32-4-3-8-6-9-7-2-3-4-12-5-19 0-6-3-16-5-17 0 0-2 1-4 1-5 3-8 2-14-1-3-2-6-4-7-4-2 0-3 5-2 11 1 4 1 6-1 12-2 9-7 15-11 15-3 0-4 1-6 2-2 2-3 3-8 3-8 1-17 4-26 11-8 5-10 7-8 10 1 2 1 4-2 6s-4 6-4 14c-1 7-3 13-9 19-2 3-5 6-6 9-4 6-9 9-17 14-4 2-11 6-15 8-5 3-9 6-10 6-4 2-24 16-27 19-1 1-6 5-10 8s-10 8-14 12c-7 7-14 12-27 21-8 5-11 5-11 2s2-5 17-15c4-3 13-9 18-15 11-10 32-28 38-32 11-8 40-26 48-30 3-2 6-5 11-10 4-5 7-9 7-10s-1-2-2-3c-4-2-5-5-1-11 2-4 3-5 3-21l1-16h2c3 0 4 0 4 3 1 5 2 6 3 4 14-9 20-12 29-12 13 0 17-2 17-8 0-2 1-5 3-9 2-6 6-21 6-27 0-1 1-7 2-12 3-11 3-40 1-45-1-1-2-5-3-8-2-8-2-9-8-15-4-5-4-6-4-11 1-6 1-7 3-7 1 0 2 1 3 2s3 4 4 6c2 2 4 5 4 7 1 2 2 7 3 11 5 16 7 22 8 31 1 8 1 9-1 12-1 3-1 4 0 9s1 8 0 11c-2 10 0 16 6 20 4 2 8 0 13-6 4-4 4-4 15-4 5-1 11-4 19-11 3-3 7-6 7-6 3 0 14-10 22-19 11-13 27-41 35-61 2-5 6-14 9-20s8-17 11-24c2-7 7-17 10-23 2-6 6-14 7-18 2-5 5-12 7-17 3-5 5-9 5-10s4-2 5-1c2 1 6 8 6 10 0 4-5 14-10 23-3 5-6 11-7 14-1 4-9 21-12 24-1 2-11 21-11 23 0 1-1 4-3 7s-4 7-5 9c0 2-2 5-4 8-1 2-5 10-9 17-3 8-7 15-8 16-4 3-13 18-15 22-2 3-8 10-16 18-4 4-7 6-23 14-8 5-11 7-12 12-1 3-2 4-4 5-4 2-4 6 0 21 2 5 4 9 6 9s20 9 24 12c2 2 6 5 9 6 3 3 5 5 8 9 1 3 3 6 4 7 0 1 1 3 1 6 1 2 2 5 3 8 2 2 4 6 5 8 5 8 11 13 18 16 4 1 7 2 9 2 1 0 4 1 7 3 4 2 5 2 7 1 5-2 21 0 32 4 5 2 12 3 16 4 4 0 9 2 12 3 3 0 8 1 11 2 3 0 7 1 9 2s4 2 5 2c1-1 4 0 20 3 11 2 25 5 38 8 9 1 26 7 30 9 4 3 2 5-3 3-3-1-25-5-47-8-36-5-66-11-83-16-18-6-24-7-27-7-4 1-3 3 1 4 2 0 4 1 4 1 2 2 8 11 10 14s4 5 6 5c3 1 6 6 7 11 1 7 11 24 16 29 2 2 3 2 6 1 4 0 4 0 7 3 2 2 3 4 3 4 0 1 2 3 4 6 2 2 4 6 5 8 2 5 9 14 16 23 4 5 9 10 10 13 1 2 3 5 4 6 2 0 4 3 6 5 1 3 5 8 8 11 5 7 9 11 20 24 2 2 7 6 10 10 4 3 8 7 9 9s5 6 7 8c3 3 6 7 8 9 3 5 16 19 28 29 8 6 17 12 21 12 2 0 3 2 2 3 0 1-2 1-5 1s-6-1-11-4zm-198-227c0-2-5-4-6-3 0 1 0 2 1 3s4 1 5 0z"/>
    <path d="m1118 1391c-2-3-2-4 0-7 1-2 7-3 9-1s1 7-1 9c-2 3-6 2-8-1z"/>
    <path d="m1070 1388c-1-1-2-3-2-4 0-4 3-7 6-7s6 3 6 6c0 2-4 7-6 7-1 0-3-1-4-2z"/>
    <path d="m1149 1385c-2-1-3-7 0-9 2-2 6-1 8 1 3 3 2 5 0 8-3 2-5 3-8 0z"/>
    <path d="m1100 1380c-4-4-1-10 4-10 2 0 3 1 5 4 3 5-5 11-9 6z"/>
    <path d="m1179 1377c-4-4 0-12 6-9 1 0 3 2 3 3 3 6-5 11-9 6z"/>
    <path d="m1130 1373c-4-4-1-10 4-10 3 0 6 3 6 6s-4 6-6 6-3-1-4-2z"/>
    <path d="m1082 1369c-3-2-4-5-1-8 1-2 6-3 8 0 3 2 2 6 0 8-3 3-4 3-7 0z"/>
    <path d="m1160 1366c-2-2-3-5 0-8 3-4 10-2 10 4 0 2-1 3-4 5-3 1-4 1-6-1z"/>
    <path d="m1111 1362-2-4c0-2 4-7 6-7 3 0 6 3 6 6s-1 4-4 6c-3 1-3 1-6-1z"/>
    <path d="m1192 1360c-2-1-5-5-4-7 1-1 2-3 3-3 5-4 11 2 8 7-1 3-4 4-7 3z"/>
    <path d="m1063 1357c-3-2-2-7 0-8 3-2 5-2 7 0 4 4 1 10-3 10-2 0-4-1-4-2z"/>
    <path d="m1141 1355c-3-4-1-10 3-11 5-1 9 6 5 10-2 2-6 3-8 1z"/>
    <path d="m1093 1350c-4-3-2-10 4-10 3 0 5 2 5 6 0 5-4 8-9 4z"/>
    <path d="m1172 1347c-3-1-3-6 0-8 2-2 4-2 7-1 4 2 1 11-3 11-1 0-3-1-4-2z"/>
    <path d="m1123 1343c-1-1-2-3-2-4 0-3 3-7 6-7 2 0 6 4 6 7 0 2-4 6-6 6-1 0-3-1-4-2z"/>
    <path d="m1202 1340c-1-1-2-2-2-4 0-6 8-8 11-3 1 3 1 3-1 6s-5 4-8 1z"/>
    <path d="m1073 1338c-1-3-1-6 2-9 6-3 11 3 8 9-3 3-7 3-10 0z"/>
    <path d="m1153 1335c-5-5 0-11 6-9 4 2 5 5 3 9-2 3-7 3-9 0z"/>
    <path d="m1104 1331c-3-3-2-6 1-8s3-2 6-1c3 2 4 6 1 9-2 3-5 3-8 0z"/>
    <path d="m1182 1327c-2-3-1-7 3-8 4-2 8 1 8 5 0 6-7 8-11 3z"/>
    <path d="m1135 1325c-5-3-2-11 4-11 5 0 7 8 3 10-3 2-5 2-7 1z"/>
    <path d="m1213 1321c-2-2-2-7 1-9 4-3 9 0 9 5s-7 8-10 4z"/>
    <path d="m1086 1320c-1-1-2-2-2-4 0-4 2-6 6-6 3 0 5 2 5 6 0 5-5 7-9 4z"/>
    <path d="m1165 1317c-5-3-2-10 4-10 3 0 5 2 5 6 0 5-5 7-9 4z"/>
    <path d="m1244 1315c-4-3-3-9 1-11 4-1 6 0 8 3 2 4 0 8-5 9-1 0-3 0-4-1z"/>
    <path d="m1116 1312c-5-4 1-12 7-9 2 2 3 8 1 10-2 1-7 1-8-1z"/>
    <path d="m1196 1311c-2-1-3-3-3-5 0-4 2-6 6-6 6 0 8 10 1 11-1 1-3 0-4 0z"/>
    <path d="m1146 1305c-6-6 2-14 8-8 2 2 3 5 0 8-1 3-6 3-8 0z"/>
    <path d="m1225 1302c-3-2-2-6 0-8 3-3 5-3 8 0 2 3 3 5 0 8-1 3-6 3-8 0z"/>
    <path d="m1097 1301c-4-3-1-10 4-10s8 6 4 10c-2 2-5 3-8 0z"/>
    <path d="m1176 1298c-2-2-2-5 0-8s7-2 9 1c1 3 1 3 0 6-2 3-7 4-9 1z"/>
    <path d="m1255 1295c-3-2-2-6 0-8 3-3 7-2 9 1 1 3 1 3 0 6-2 3-7 4-9 1z"/>
    <path d="m1127 1293c-2-3-2-4 0-7 1-3 6-3 8 0 3 2 2 7 0 8-3 3-6 2-8-1z"/>
    <path d="m1206 1291c-2-2-3-5 0-8 1-3 6-3 8 0 3 2 2 7 0 8-3 3-6 2-8 0z"/>
    <path d="m1158 1288c-3-1-4-5-2-9 3-3 8-3 10 0 3 6-2 11-8 9z"/>
    <path d="m1236 1284-2-4c0-3 4-6 6-6 6 0 8 7 4 10-3 3-5 2-8 0z"/>
    <path d="m1109 1283c-3-3-3-7 1-10 3-2 6 0 8 3 3 6-4 10-9 7z"/>
    <path d="m1189 1281c-1-1-3-3-3-4-1-3-1-4 1-6 5-3 10-1 10 5 0 4-4 7-8 5z"/>
    <path d="m1266 1277c-2-3-3-5 0-8 1-2 5-3 8-1s3 7 0 9c-3 3-5 2-8 0z"/>
    <path d="m1139 1275c-3-3-2-7 0-9 4-2 6-1 8 2 2 2 2 3 1 6-2 3-7 4-9 1z"/>
    <path d="m1218 1272c-2-1-3-6-1-8 1 0 3-1 5-1s3 1 5 3c1 2 1 3 0 5-2 3-7 4-9 1z"/>
    <path d="m1169 1268c-3-3-2-7 0-9 6-3 11 2 9 7-1 4-7 5-9 2z"/>
    <path d="m1248 1265c-3-2-2-8 2-9 5-2 10 4 7 9-2 2-7 3-9 0z"/>
    <path d="m844 1264c-2-1-5-3-6-4-1-2-5-4-7-6-5-2-19-14-34-27-6-5-12-10-13-11-2-1-6-3-9-6-8-7-12-11-15-12-2-1-6-5-9-8-4-3-8-6-10-7-1-1-3-2-4-3 0-1-2-3-4-4s-3-2-3-3 2-1 17-1h16l6 6c4 3 8 6 9 7 1 0 6 4 11 8 5 5 10 10 12 11 2 0 5 3 8 5 2 2 7 6 11 8 3 3 8 7 10 9 3 3 5 4 20 14 7 4 10 8 11 14 0 4 0 5-3 8-3 4-10 5-14 2z"/>
    <path d="m1120 1264c-4-4-1-10 4-10 3 0 6 3 6 6 0 5-7 8-10 4z"/>
    <path d="m1199 1261c-4-4-1-10 4-10s8 7 4 10c-2 3-6 2-8 0z"/>
    <path d="m1278 1258c-1-1-2-3-2-4s1-3 2-4 3-2 4-2c2 0 6 3 6 6 0 5-6 8-10 4z"/>
    <path d="m1150 1257c-2-2-3-5 0-8 1-3 6-3 8 0 6 6-3 13-8 8z"/>
    <path d="m1229 1254c-2-2-3-5 0-8 1-3 6-3 8 0 6 6-2 14-8 8z"/>
    <path d="m1180 1250c-2-3-3-5 0-8 2-2 6-3 8-1 3 2 2 8 0 9-3 3-5 2-8 0z"/>
    <path d="m1260 1247c-3-2-4-5-1-8 1-2 6-3 8 0 3 2 2 7 0 8-3 2-4 2-7 0z"/>
    <path d="m1131 1245c-3-3-2-6 0-8 3-3 7-2 9 1 2 2 2 3 1 6-2 4-8 4-10 1z"/>
    <path d="m1212 1244c-1-1-2-2-3-4-2-4 3-9 8-7 3 2 4 5 3 8-2 3-5 4-8 3z"/>
    <path d="m1289 1239c-2-2-2-6 0-8s6-2 8 0c2 1 2 7 1 9-2 1-8 1-9-1z"/>
    <path d="m1162 1239c-3-2-3-8 0-10 4-2 6-1 8 2 2 2 2 3 1 6-2 3-6 4-9 2z"/>
    <path d="m1241 1235c-5-4 0-11 6-9s4 11-2 11c-2 0-4-1-4-2z"/>
    <path d="m1192 1231c-4-4-1-10 4-10 6 0 8 7 4 10-3 3-6 2-8 0z"/>
    <path d="m1271 1228c-4-4-1-10 4-10 3 0 6 3 6 6s-3 6-6 6c-2 0-3-1-4-2z"/>
    <path d="m1143 1227c-2-1-3-5-1-8 1-2 7-3 9 0 3 2 2 6 0 8s-5 3-8 0z"/>
    <path d="m1222 1224c-1-1-2-3-2-4 0-3 3-7 5-7s5 2 6 3c2 2 1 6-1 8-3 3-5 3-8 0z"/>
    <path d="m1303 1222c-6-2-4-11 2-11s8 8 2 11c-1 0-2 1-2 1s-1 0-2-1z"/>
    <path d="m1173 1219c-4-4-1-9 4-9 4 0 6 2 6 6s-7 7-10 3z"/>
    <path d="m1251 1215c-2-3 0-7 3-8 5-2 10 3 7 8-1 4-7 4-10 0z"/>
    <path d="m1373 1215-2-2 2-2c2-2 5-4 7-6 5-4 10-11 12-18 1-3 3-8 4-10 1-3 2-8 3-10v-7-8c-1-5-1-6-3-5-1 1-1 1-2 0s0-2 2-4 2-2 2-7c0-3 0-7-1-9-1-3-1-4-5-4-5-1-8-5-7-8 1-1 2-3 4-5 3-2 3-2 3-9-1-7-2-9-7-9-7 0-9-8-3-11 1-2 3-3 3-4 0-4-6-14-8-15-5-1-6-3-6-9 0-4-1-7-4-12-5-11-12-20-14-20s-6-2-7-3-1-3-1-5c0-3-1-5-3-7-2-3-2-3-3-1-3 3-4 4-7 4-2 0-6-3-6-6s2-5 5-6c2 0 4-1 4-2 0-2-8-11-16-17-5-3-9-7-10-8-2-3-2-3-1-5 2-4 4-4 4-1 0 4 4 6 8 6s5 1 8 7c1 2 4 7 7 10 3 2 6 7 7 9 2 5 6 10 10 12 3 1 4 3 5 6 2 6 4 8 7 8 4 0 8 5 8 10s4 15 8 19c2 1 3 3 3 4 0 2 5 10 7 12 2 1 2 2 2 4-1 3 1 11 4 19 1 3 2 7 3 11 0 3 1 8 3 12 3 8 5 28 5 47 0 12 0 16-2 21-1 3-3 8-3 11-2 7-11 19-17 23-5 4-9 4-12 0z"/>
    <path d="m1333 1215c-3-2-4-3-4-6 0-5 8-7 10-3 3 3 2 6-1 8s-3 2-5 1z"/>
    <path d="m1202 1211c-1-2-1-3 0-5 2-6 11-4 11 2s-7 8-11 3z"/>
    <path d="m1825 1211c-1-1-1-1 1-3 4-4 7-2 5 3-2 2-4 3-6 0z"/>
    <path d="m1281 1208c-2-3 0-6 3-8 6-3 11 5 6 9-2 3-7 2-9-1z"/>
    <path d="m1154 1208c-4-4-2-10 4-10 3 0 6 2 6 4 1 7-6 10-10 6z"/>
    <path d="m1233 1205c-2-2-2-3-1-6 3-6 11-4 11 2 0 5-6 8-10 4z"/>
    <path d="m1312 1202c-3-3-3-5 0-8s5-3 8 0c2 2 3 6 0 8-2 3-6 2-8 0z"/>
    <path d="m1185 1201c-3-1-3-6 0-8 5-5 12 2 8 7-2 3-5 4-8 1z"/>
    <path d="m1264 1198c-4-4-1-10 4-10 2 0 3 1 5 4 3 5-5 11-9 6z"/>
    <path d="m1343 1196c-3-1-3-8 0-10 2-2 6-1 7 1 5 5-1 12-7 9z"/>
    <path d="m1216 1195c-3-2-4-6-2-9s7-3 9 0c3 3 2 5 0 8-3 2-4 2-7 1z"/>
    <path d="m1294 1191c-3-2-3-8 0-9 6-3 12 3 8 8-2 3-5 4-8 1z"/>
    <path d="m1247 1188c-4-1-5-8-2-11 3-2 6-1 9 3 2 3 1 6-3 8-1 0-2 1-2 1s-1 0-2-1z"/>
    <path d="m1325 1185c-4-2-4-9 1-11 6-2 10 6 5 10-2 2-3 2-6 1z"/>
    <path d="m1196 1182c-2-2-2-5 0-8 3-4 10-1 10 4s-7 8-10 4z"/>
    <path d="m1275 1179c-4-4 0-11 5-9 5 1 7 6 3 9-2 3-6 2-8 0z"/>
    <path d="m1354 1176c-3-3-2-7 1-9 2-1 3-1 5 0s3 3 3 4c0 6-6 9-9 5z"/>
    <path d="m1226 1175c-4-3-2-10 4-10 5 0 8 7 4 10-2 2-5 2-8 0z"/>
    <path d="m1305 1172c-4-4-1-10 4-10 3 0 6 3 6 6s-3 6-6 6c-2 0-3-1-4-2z"/>
    <path d="m1384 1169c-4-3-2-10 4-10 2 0 6 4 5 7 0 2-4 5-5 5s-3-1-4-2z"/>
    <path d="m1256 1168c-2-3-3-5 0-8 2-3 7-3 9 0s1 6-1 8c-3 3-5 3-8 0z"/>
    <path d="m1335 1165c-4-4-1-10 5-10 2 0 3 1 4 3 1 3 1 4-1 6-2 3-5 4-8 1z"/>
    <path d="m1206 1162c-2-3 0-6 3-8 6-3 10 4 7 9-2 3-7 3-10-1z"/>
    <path d="m1286 1161c-3-3-3-5 0-8 2-2 7-3 9-1s1 7-1 9c-3 3-5 3-8 0z"/>
    <path d="m1364 1157c-4-7 6-13 10-6 1 2 1 3 0 5-3 4-8 4-10 1z"/>
    <path d="m1237 1157c-2-2-1-8 1-10 3-2 6-1 9 3 1 2 1 2 0 5-1 2-2 3-5 3-2 0-4 0-5-1z"/>
    <path d="m2 1156c-1-1-1-4-1-9 0-7 0-7 3-8 1-1 8-1 14-1 10 0 13 0 14-1s1-13 0-44c0-39 0-41 2-43s16-1 18 0c2 2 3 29 3 64 0 15 0 21 1 22s6 1 15 1c16 0 16 0 16 10 0 6 0 7-2 8-1 0-19 1-41 1-33 1-41 1-42 0z"/>
    <path d="m226 1155c-12-2-21-8-25-17-3-4-3-7-4-13 0-10 1-15 7-21 5-6 11-9 28-13 25-6 28-8 27-19 0-1-1-3-3-5-4-5-11-6-20-6-10 1-17 6-19 13-2 4-4 5-13 5-7 0-8 0-9-2-2-3 1-11 5-18 7-10 18-15 36-16 21-1 35 6 42 20 4 7 4 20 1 26-5 10-13 15-37 21-15 4-18 5-21 8-2 2-3 3-3 7 0 3 1 5 3 7 5 5 12 7 21 5 7-1 11-4 14-10 3-5 4-6 12-6 9 0 10 0 10 5 0 9-8 20-18 25-8 4-22 6-34 4z"/>
    <path d="m102 1154c0-1-1-16-2-53 0-45 0-51 1-52 3-2 76-3 78-1s3 15 1 17c-1 0-12 1-29 1-23 0-27 1-28 2s-1 7-1 13c0 9 0 11 2 12 1 1 6 1 24 1 20 0 24 0 25 1s1 4 1 9v8h-24c-14 1-25 1-26 2-2 0-1 19 0 21 2 1 8 1 27 1 21 0 26 0 27 1 3 2 3 14 1 16-1 1-13 1-39 2-31 0-37 0-38-1z"/>
    <path d="m1315 1152c-1-2-1-3 0-5 2-4 5-5 8-3 5 3 3 11-3 11-2 0-3-1-5-3z"/>
    <path d="m292 1151c-2-1-1-15 0-16 1 0 8-1 15-1 8-1 14-1 15-2s1-7 0-43c0-32 0-41 1-42 2-2 18-3 20-1 1 1 1 16 2 43 0 36 1 42 2 43s7 1 15 1c9 0 13 0 14 1 1 0 1 4 2 7 1 11 4 10-44 11-23 0-42 0-42-1z"/>
    <path d="m2060 1150c-3-6-7-6-37-7-47 0-79-1-96-3-9 0-17-1-17-2 0 0-4 0-9-1s-11-1-14-2c-22-4-34-6-50-10-24-5-25-5-37-8-14-2-16-3-16-6 0-2 2-5 4-5 1 0 4 1 6 1 10 3 25 6 30 6 2 0 6 1 9 2 2 1 10 3 17 4 6 1 13 2 14 3 2 0 13 2 25 3 12 2 23 3 26 4 2 1 6 1 8 1s5 0 8 1c2 1 10 1 19 1 8 1 23 1 32 2 9 0 18 1 20 1 25 0 47 1 52 2 10 4 16 11 11 14-3 1-3 1-5-1z"/>
    <path d="m1268 1149c-3-1-3-6 0-8 5-5 12 1 9 6-2 4-5 5-9 2z"/>
    <path d="m458 1149c-2-2-2-12-1-15 2-2 2-3 16-3 11 0 14-1 15-2s1-17 0-43c0-33 0-41 1-42 1-2 3-2 10-2 8 0 9 0 10 2 0 1 1 20 2 42 0 22 1 41 1 42 1 2 3 2 15 2 9 0 14 0 15 1 2 2 1 16-1 16-1 1-20 2-55 3-22 0-27 0-28-1z"/>
    <path d="m558 1146c-1-1-1-9-1-41 0-39 0-41 2-45 6-14 21-22 40-22s34 9 40 24c1 6 2 26 3 65 0 15 0 18-1 19s-5 1-10 1c-8 0-9 0-10-2-1-1-1-11-1-25 0-12 0-29-1-36-1-12-1-14-3-18-4-6-9-9-18-9-7 0-13 3-16 7-4 5-4 8-4 46 1 27 1 35 0 37-2 2-18 2-20-1z"/>
    <path d="m1346 1146c-1-1-2-3-2-4 0-2 3-6 6-6s6 3 6 6c0 5-6 8-10 4z"/>
    <path d="m1219 1145c-4-3-2-10 4-10 2 0 6 3 6 6 0 1-4 6-6 6-1 0-3-1-4-2z"/>
    <path d="m667 1144c-1-1-1-15-2-52-1-46-1-50 0-52 3-2 54-3 63-1 15 4 24 16 24 32 0 7-2 13-8 18-2 2-4 5-4 6s1 3 3 5c5 5 6 10 6 18 0 6 0 8-3 12-3 6-9 11-16 13-2 1-15 1-33 2-25 0-29 0-30-1zm55-19c6-3 8-11 4-17-3-5-5-5-22-5-19 0-18-1-18 13 1 6 1 9 3 10 2 2 28 1 33-1zm1-42c9-5 10-19 0-25-2-1-5-2-18-2-15 0-16 0-18 2s-2 3-1 13c0 6 1 12 1 13 1 1 5 1 16 1 13 0 16 0 20-2z"/>
    <path d="m1298 1142c-4-3-1-11 4-10 6 2 7 6 4 9s-5 4-8 1z"/>
    <path d="m774 1142c0-1-1-24-1-52-1-47-1-51 0-53 3-1 76-3 79-1 1 1 1 3 1 9 0 7 0 8-2 8-1 1-14 1-28 2-16 0-27 1-28 1-2 2-1 22 1 25l1 2 23-1c28 0 27-1 27 9 0 5 0 7-2 8-1 1-7 2-24 2-15 0-24 1-25 1-1 1-1 17 0 20 1 2 2 2 28 2 19 0 27 0 28 1 0 1 0 4 1 7 1 11 3 10-40 11-27 0-38 0-39-1z"/>
    <path d="m2172 1141c-9-1-14-3-15-6s2-5 6-5c9 2 35 2 44 1 10-1 21-5 21-7 0-1-3-2-7-4-7-2-9-2-25-2-12 0-20 0-25 1-9 2-8 3-12-1s-5-7-3-16c1-6 0-8-3-8-1 0-5-1-7-1-3-1-7-2-8-3-3 0-3 0-3-3 1-3 0-5-1-7-1-3-1-4 0-6 1-1 4-4 7-6s5-4 5-6c1-2 2-5 4-7s4-5 5-9c1-7 1-10 0-37 0-17-2-40-3-52 0-12-1-24-1-27 1-9-2-54-4-64 0-5-2-13-3-17s-1-8-1-9c1-1-1-14-3-23s-8-26-10-30c-2-2-4-6-6-10-1-3-4-8-8-10-7-7-28-25-41-34-6-4-13-9-16-11-3-3-7-6-9-8-3-2-6-4-8-6-3-2-7-5-10-7-8-5-17-12-23-17-3-3-5-5-6-5-3 0-32-33-40-45-7-11-13-25-15-32 0-4-2-10-2-12-5-15-6-19-7-30-3-18-2-62 1-75 1-5 3-16 5-23 4-20 6-27 9-30 2-1 4-5 5-8 4-6 7-10 10-10s3-2 1-5c-3-8-17-30-27-45-7-9-13-19-14-22-2-3-9-13-16-23s-13-21-15-23c-3-5-12-18-20-29-4-6-4-8-5-15-1-6-1-7 0-9 1 0 2-1 3 0 2 0 9 12 9 14 0 1 5 9 11 20 6 9 7 10 13 18 3 4 6 9 7 11 1 1 4 5 6 8 2 2 5 7 7 10 1 2 3 5 4 6 1 2 10 17 14 24 2 3 4 7 6 9 4 5 7 10 7 13 0 1 1 4 2 5 1 2 9 17 13 25 3 5 14 22 24 38 4 7 10 15 11 18 4 7 4 7 5 25 0 10 1 18 1 19 1 1 2 21 4 55 0 19 1 23 6 28 4 3 10 3 12 0 1-1 1-29 0-98-1-34-1-37 1-40 1-1 3-6 4-11 5-16 18-48 23-59 5-8 22-43 25-50 1-3 7-15 12-26 6-11 12-25 15-30 3-6 8-17 12-26s9-18 10-22c1-3 3-7 5-8 1-1 2-3 2-4 0-2-11-12-13-12 0 0-3-1-6-3-3-1-8-3-10-4-3-1-8-2-11-4-3-1-10-4-16-6-9-4-12-4-27-5-22-1-35-1-47 0-6 1-15 2-20 3-14 1-43 8-54 13-2 2-8 4-12 5-8 2-17 6-22 10-1 1-3 2-4 2 0 0-2 1-4 3-11 7-15 10-16 13-2 3-8 6-10 4-5-3 3-15 18-25 5-4 11-7 12-8s4-3 7-5c2-2 5-4 7-5 1 0 4-1 7-2 4-2 21-6 22-5 1 0 4-1 6-1 2-1 7-2 11-3 3 0 7-1 8-1 0-1 4-2 8-3 5 0 9-1 9-2 1 0 7-1 21-3 12-1 51-1 61 0 4 1 10 2 14 3 6 1 28 9 32 12 1 1 5 2 7 3 7 2 15 6 19 9 2 2 5 5 8 7s4 4 6 10c1 3 2 8 2 9 0 3-7 17-11 21l-2 4c0 1-1 4-3 8-2 3-3 6-3 7s-3 7-21 44c-3 7-6 13-6 13 0 1-13 28-15 33-7 12-8 15-13 27-3 7-7 16-8 20-2 3-6 11-9 17-2 6-5 11-5 12-1 1-2 3-2 4-1 2-4 9-11 25-2 5-3 14-2 45 1 8 0 24 0 35-1 19 0 42 2 50 0 2-1 4-4 8-2 2-5 6-6 7-2 3-4 3-9 4-7 1-7 1-9-1s-3-3-5-3c-6-2-7-15-9-100-1-29-3-37-8-41-1-1-3-5-4-8-6-13-19-35-22-35-2 0-7 7-9 14-1 4-3 10-3 14s-1 7-1 8c-1 1-2 6-3 11-1 6-3 15-4 20-5 24-6 38-5 53 1 4 1 15 2 24 1 14 2 19 4 24 1 4 3 11 4 14 8 21 35 57 57 74 4 4 9 8 10 8 0 1 2 3 4 3 4 3 15 11 23 18 11 9 16 13 19 14 1 1 3 3 4 3 0 1 3 3 5 5 3 2 7 5 9 7 3 2 6 5 9 6 2 2 7 5 10 9 4 3 9 7 11 9 5 4 11 13 13 17 0 1 1 5 3 7 4 9 10 27 11 34 1 3 2 12 3 18 0 7 1 14 2 16 0 2 1 9 1 15 1 6 2 13 2 14 1 2 2 18 3 37 0 18 1 41 2 51 2 28 2 82 1 82-1 1-1 3-1 5 0 5 0 5 12 2 6-2 10-2 30-2s23 0 33 2c10 3 15 4 23 10 7 5 8 7 7 11-1 6-5 7-7 2-2-3-4-4-7-4-2 0-5-1-8-2-10-5-17-6-32-6-8 1-16 0-18 0-4-1-18 1-28 3-15 4-18 5-21 8-2 1-3 3-3 4 0 0 3 2 7 3 5 1 7 1 9 0 4-1 7 0 8 4 0 2 0 15-2 21v3h5c3-1 10-2 15-3 17-4 46 1 54 8 2 1 2 1 2-1 0-1 0-3-1-5-1-1-2-7-4-13-2-10-2-12 0-14 3-5 7 0 8 13 1 4 2 11 4 15 3 8 3 8 1 10-1 0-2 1-2 1-1 0-2 2-4 4-1 3-2 4-6 5-3 0-6 1-7 2-6 3-10 4-44 6-2 1-8 0-13 0z"/>
    <path d="m1376 1139c-1-1-2-3-2-4s1-3 2-4 3-2 4-2 3 1 4 2 2 3 2 4-1 3-2 4-3 2-4 2-3-1-4-2z"/>
    <path d="m1251 1139c-3-2-4-3-4-5s4-7 6-7 6 5 6 7c0 1-4 6-6 6 0 0-1-1-2-1z"/>
    <path d="m1328 1135c-2-1-3-5-1-8 1-3 6-3 9 0s3 4 0 7c-2 3-5 4-8 1z"/>
    <path d="m1279 1131c-2-3-2-4-1-7 1-4 5-5 9-2 3 3 3 6-1 9-3 3-4 3-7 0z"/>
    <path d="m1359 1129c-3-2-4-7-2-10 2-1 7-1 9 1s1 6-1 8c-3 2-3 2-6 1z"/>
    <path d="m1229 1126c-2-5 1-10 6-10 2 0 5 3 5 6 0 6-8 8-11 4z"/>
    <path d="m1308 1123c-3-6 2-12 7-9 6 2 4 11-2 11-2 0-3-1-5-2z"/>
    <path d="m1260 1118c-3-3-3-4 0-7 4-4 10-2 10 4s-6 8-10 3z"/>
    <path d="m1339 1116c-4-3-2-10 4-10 2 0 6 3 6 6s-3 6-5 6-4-1-5-2z"/>
    <path d="m1290 1112c-2-3-3-5 0-8 1-3 6-3 8 0 3 2 2 7 0 8-3 3-5 2-8 0z"/>
    <path d="m1369 1109c-4-3-2-10 4-10 2 0 6 3 6 5 0 3-4 7-6 7-1 0-3-1-4-2z"/>
    <path d="m1242 1108c-2-1-3-5-2-7s4-4 6-4 6 5 6 6c0 4-6 7-10 5z"/>
    <path d="m1319 1103c-1-2-1-3 0-5s3-3 5-3c4 0 6 2 6 6 0 5-8 7-11 2z"/>
    <path d="m1272 1100c-4-4-1-10 4-10 2 0 6 3 6 5s-2 5-3 6c-2 2-6 1-7-1z"/>
    <path d="m1349 1097c-2-3-1-6 3-9 5-3 11 5 6 9-3 3-7 2-9 0z"/>
    <path d="m1302 1094s-1-1-2-3c-3-5 5-11 9-6 2 2 3 7 1 9-2 1-6 1-8 0z"/>
    <path d="m1255 1090c-3-2-4-3-4-6 0-5 8-7 10-3 3 3 2 5 0 8-3 2-4 2-6 1z"/>
    <path d="m1331 1085c-3-4-1-9 5-9 5 0 7 6 3 10-2 3-5 2-8-1z"/>
    <path d="m1284 1083c-4-2-4-10 1-12 3 0 7 3 8 6 0 2-1 3-3 5-3 2-3 2-6 1z"/>
    <path d="m1361 1078c-2-2-2-5 1-8 2-2 6-2 8 1s2 6-1 8c-3 3-5 2-8-1z"/>
    <path d="m1507 1076c-1-2-1-4 0-10 1-7 1-8-2-17-6-17-7-18-12-27-2-4-4-10-5-12-1-4-4-9-12-21-2-3-4-7-5-8-3-5-12-14-25-26-19-18-26-23-65-51-8-5-25-13-43-19-25-9-26-9-26-11 0-3 6-4 13-2 2 1 11 4 19 6 18 5 17 5 23 9 3 2 7 5 9 6 3 1 7 3 11 6 3 2 8 6 11 7 2 2 6 5 8 7 3 2 6 4 8 6 4 2 14 9 21 16 11 10 16 14 20 17 6 4 21 20 24 26 2 2 5 7 7 11 12 15 29 57 30 70 0 7-3 17-6 18-1 0-2-1-3-1z"/>
    <path d="m1313 1074c-4-3-1-10 4-10 2 0 6 3 6 6 0 5-7 8-10 4z"/>
    <path d="m1264 1070c-2-2-3-5 0-8 1-3 6-3 8 0 6 6-2 14-8 8z"/>
    <path d="m1343 1067c-4-4-1-10 4-10 3 0 6 4 6 6 0 3-3 6-6 6-2 0-3-1-4-2z"/>
    <path d="m1294 1063c-2-3-2-6 1-9 5-4 12 3 8 8-3 3-6 3-9 1z"/>
    <path d="m1325 1057c-5-3-3-11 3-11s8 6 4 10c-2 2-3 2-7 1z"/>
    <path d="m2249 1052c-1-1-3-2-4-2-3 0-8-5-11-10-1-3-3-10-4-16s-2-13-3-15-2-17-3-32c0-16-1-33-2-38-1-14 0-93 1-113 1-17 2-26 4-34 1-2 1-7 2-10 0-7 3-11 7-11 2 0 3-1 5-5 6-13 30-42 47-54 8-7 29-27 34-35 3-2 8-9 13-13 10-11 18-22 33-45 6-10 21-38 23-44s6-30 7-41c2-17 1-24-7-65-2-7-4-15-5-18-6-12-14-30-16-31-1-2-2-4-2-6-1-4-8-13-17-24-10-11-24-25-29-29-4-4-28-15-30-15-1 0-6-2-11-5-6-4-11-6-12-6s-4-1-6-2c-3 0-9-2-14-3s-12-3-14-4c-11-6-27-7-92-8-6 0-12-1-13-1-1-1 2-5 6-7 1 0 4-2 5-3 2-2 4-3 7-4 7-1 64 3 82 5 23 4 40 8 49 13 3 1 6 2 8 2 3 0 11 5 22 13 1 2 5 4 8 5 4 2 9 6 14 11 26 24 42 44 51 64l9 18c1 3 3 7 3 8s1 4 3 7c1 2 2 5 2 6s1 4 2 6c2 5 7 27 8 36 0 2 0 6 1 8s1 5 0 9-1 7 0 15c1 9 0 23-2 26 0 1-1 5-1 10-1 5-3 12-4 14-1 3-3 8-4 11 0 4-2 9-3 11-2 4-2 4-7 15-2 3-4 7-5 9s-5 7-8 12c-4 5-8 12-11 15s-5 5-5 6-2 2-4 4c-2 1-4 3-5 5-1 5-5 9-11 15-13 11-17 15-23 21-4 3-9 8-11 10-22 17-46 44-52 57-5 12-7 18-8 28-2 7-4 32-5 41 0 1 0 6-1 11-3 32-3 114 1 143 1 4 1 9 1 10 0 3 5 24 8 34 2 6 3 12 3 14 0 4-2 4-4 1z"/>
    <path d="m1276 1051c-4-3-1-9 3-9s6 2 6 5-2 6-5 6c-2 0-4-1-4-2z"/>
    <path d="m1356 1050c-5-2-5-8 0-11s10 3 7 9c-1 2-4 3-7 2z"/>
    <path d="m1306 1045s-1-2-2-3c-1-2-1-3 0-5 3-3 5-4 8-2 5 3 4 11-2 11-2 0-3 0-4-1z"/>
    <path d="m1336 1037c-4-4-1-10 3-10 2 0 7 4 7 6 0 0-1 2-2 3-2 3-6 4-8 1z"/>
    <path d="m1289 1034c-2 0-4-3-4-6 0-5 8-7 10-3 3 3 2 6-1 8-2 2-3 2-5 1z"/>
    <path d="m1317 1025c-3-2-2-6 1-8s3-2 5-1c4 3 5 6 3 9-2 2-7 3-9 0z"/>
    <path d="m653 1018c-1-2 4-5 25-21 9-6 32-23 69-51 10-7 26-18 36-26 18-12 27-18 52-37 7-5 16-11 19-13 3-3 9-7 13-10s15-11 25-18c9-6 18-13 21-15 12-10 26-19 28-21 5-2 18-11 21-15 7-6 17-13 20-15 2-1 5-2 6-3 3-2 7-2 8 0 1 3 3 8 4 11 0 2-1 4-7 9-4 4-10 8-12 10-7 5-14 10-16 13-1 1-3 2-5 2-1 1-4 2-5 3-2 2-17 13-38 29-3 2-10 7-16 11-6 5-11 8-11 8l-6 4c-3 3-7 6-11 8-3 2-8 6-10 8-3 3-10 8-15 12-6 3-12 8-15 9-2 2-6 5-8 7-2 1-6 4-8 6-4 3-27 19-40 29-4 2-10 7-15 11-4 3-9 6-10 7-2 2-8 6-13 10-10 8-28 22-35 27-2 1-6 4-8 6s-5 4-6 5c-3 1-36 1-37 0z"/>
    <path d="m1298 1014c-1-1-2-3-2-4 0-3 4-6 6-6 3 0 6 3 6 6 0 6-7 8-10 4z"/>
    <path d="m501 1012c-3-1-6-2-7-3-3-2-12-4-16-4-23 4-29 3-42-3-10-5-11-7-7-9 2-1 4-1 8 0l5 2 3-3c2-2 3-3 6-3s5 2 6 7c1 4 2 5 11 2l8-1-1-4c0-5 2-8 6-8 5 0 8 5 4 10 0 1-1 2-1 3 1 1 7 2 11 1 4-2 6 0 7 3v3h10c7 0 9 0 10 2 1 1 1 1 0 3-2 0-3 1-4 1s-4 0-7 1h-10z"/>
    <path d="m525 1e3c-5-3 0-9 5-8 3 1 5 5 3 6-1 2-7 3-8 2z"/>
    <path d="m547 997c0-2 2-5 10-13 6-5 13-12 16-14 5-3 6-5 7-8 0-3 4-7 7-7s5-4 6-9c1-3 2-5 4-8 2-1 5-5 6-7 1-3 5-7 8-11 3-3 7-8 8-10s3-5 5-6c2-2 5-6 8-10 2-4 5-8 7-9 4-4 6-8 6-11 0-1-1-7-3-13-2-11-7-20-12-24-3-3-3-3-3-9 0-5-1-7-2-9l-2-3-1 2c-2 5-4 6-10 6s-7-1-8-8c-1-4-1-5-5-5-5-1-7-3-7-7 0-3 4-5 8-5 4 1 5-1 5-10 1-8 0-9-7-9-5 0-6 1-9 10-2 8-3 23 0 27 0 1 1 4 1 7 0 4 4 22 6 24 0 1 0 7-1 15-1 13-1 13 1 16 3 4 2 8-2 10-3 1-6 0-8-4s-4-3-6 2c-1 4-1 4 4 11 2 3 1 7-4 9-1 0-4 1-5 1-2 0-4-4-4-9 0-4-1-4-6 0-3 3-3 3-6 2s-4-1-4-8 1-9 4-11c2-1 3-1 6 1l4 2 3-2c4-3 4-5 0-8s-4-7-1-9c3-3 6-2 8 0s2 3 2 6c-1 4 0 5 4 2 5-3 5-4 3-7 0-1-1-3-1-4s-1-4-2-5c-4-4-4-5-1-10l2-4-2-6c-1-4-3-8-4-9-2-5-4-19-3-25v-6c-1-1-1-1-2 0s-2 4-1 6c0 4 0 6-3 10-4 7-8 15-9 21 0 2-1 6-2 9-1 4-1 5 1 7 1 2 2 4 2 6 0 3-1 4-8 7-2 1-5 11-8 22-2 10-2 11 3 13 3 1 4 2 4 5 0 4-3 7-8 7-2-1-4-1-4 0-1 1-1 9-1 17 0 14 0 16 2 20 2 6 2 7-3 11l-2 2-3-2c-2-2-2-4-2-6v-13c0-9 0-10-2-12-3-4-3-9 0-11 3-3 4-4 3-12-1-6-1-6-5-8-3-2-5-5-3-9 0-2 1-3 5-3 3 0 6-1 6-1 1-1 1-4 1-7 0-4 0-6 3-9s4-6 6-13c2-5 4-11 5-14 1-6 1-6-1-10-2-2-3-4-3-6 0-3 0-4-3-4-6-2-7-1-7 2 0 4-5 3-5-2 0-1-1-3-2-5-1-4-1-4 0-7 2-3 8-3 11 0 3 4 5 2 5-4 0-2-1-4-2-5-2-3-1-6 3-10 5-6 6-5 7 3 1 1 0 4 0 7-1 2-3 6-3 10-1 4-2 7-2 8-1 2-1 2 3 2 5 0 7-2 7-8 1-2 2-7 4-10 2-4 2-5 1-9-1-3-2-6-3-6-2-3-18-9-19-9-1 1-4 5-6 11-3 5-8 15-12 21-4 7-7 12-7 13s2 1 4 1c6 0 9 6 5 10-3 3-6 2-9-1-2-2-3-3-4-3s-6 6-6 8c0 1 1 2 2 3 2 0 4 2 5 3 3 6-3 11-9 8-2-1-3-1-4 0-2 1-3 4-1 7 0 2 1 5 1 6 0 3-1 4-4 5-3 2-4 3-6 7-1 3-3 9-5 13s-4 10-5 12c0 4 0 4 3 4 4 0 8 4 8 9l1 4-7-1c-7 0-7 0-7 10-1 3-2 10-2 14l-2 9 3 4c4 3 5 7 2 9-2 2-5 2-8 1-2-1-3-1-4 1-4 3-5 0-5-7v-5l-4-1c-6-1-8-7-4-10 1-2 3-2 6-2 3 1 4 1 5-1 1-1 1-4 1-7-1-5-1-5 2-9 3-3 4-5 5-11v-7c0-1-1-1-4-1s-5-1-6-3c-4-6 2-11 9-7 3 2 3 2 4 0 2-2 2-7 1-9-2-2-2-7-1-8s3-2 5-3 3-3 5-7c1-3 4-11 7-17s5-11 5-12c0 0 1-3 2-5 4-6 4-8 1-12-3-3-4-6-2-9 1-2 5-3 8-2 5 2 8-2 6-8-2-4-1-7 1-8 0-1 3-1 5-2 4 0 6-2 6-9 0-4 0-5 3-7 2-2 3-5 4-6 1-2 2-3 3-4 1 0 2-1 3-2 2-8 12-8 12 0 0 4 2 4 6-2s5-9 3-9c-1 0-3-1-4-2-6-4-3-11 4-11 3 0 4-2 1-6-2-4-6-6-9-5-1 0-3 2-4 4-2 4-5 6-9 5-2 0-4 0-6 1-2 2-3 4 0 8 1 3 1 3 0 7-1 2-2 4-1 6 1 6-4 3-8-5-3-5-7-5-12 0-6 5-6 9 0 7 4-2 8 1 8 5 0 2-1 4-1 5-2 2-7 1-9-1s-3-3-4-3-4 2-7 5c-2 3-7 8-10 10l-18 18c-11 12-12 14-16 24-3 6-5 11-5 12s-1 2-2 4c-3 3-3 4 2 7 6 5 3 12-5 12-5 0-6 2-5 9 0 5 0 5-3 8-3 2-6 6-12 19-5 9-9 16-10 17-6 3-15-3-13-9 1-3 3-4 8-4 3 0 4 0 4-8 1-5 2-7 5-10s5-6 8-16c6-17 6-18 2-20-2 0-3-2-4-3-3-6 4-10 10-7 4 2 8-4 4-8-2-4-1-7 3-11 3-2 6-6 8-10s4-6 7-7c6-3 7-5 7-10-1-4-1-4 2-5 2-1 4-2 6-2 1 0 4-1 5-2 2-1 2-2 2-6-1-3-1-6 0-7 1-2 5-3 8-2s3 0 6-2c2-2 2-2 1-4-3-4-3-6-2-8 1-4 5-5 10-2l3 1 3-3c3-3 3-4 0-7-5-4-3-10 3-10 3 0 6 3 7 8 1 2 11-4 15-8 1-1 5-3 8-5 6-4 6-5 8-11 0-3 3-6 6-6s6 4 6 7c0 2 1 4 4 8 3 2 6 7 7 9 2 6 3 7 6 7 1 1 6 3 10 5 6 3 11 4 18 5 9 1 22 5 28 8 1 1 6 2 10 3 6 1 12 2 36 10 6 2 16 5 22 6 5 2 10 4 12 4 1 1 5 2 8 3 4 1 9 2 11 2 2 1 7 3 11 4 3 0 7 2 10 3 2 0 5 1 7 1 1 0 4 1 7 2 2 1 9 3 15 4s12 3 14 4c3 1 13 3 20 5 6 1 9 4 9 9 0 6-2 11-5 13-1 1-5 2-7 3-4 1-5 1-11-2-3-1-7-2-8-2-2 0-5-1-8-2-2 0-12-3-20-5-9-2-20-5-24-7-9-2-9-2-46-12-14-3-27-7-31-8-11-4-30-8-32-8-1 1-1 3-1 11 1 12 2 17 4 26 2 5 3 7 4 7 2 0 3 3 6 12 2 7 4 15 5 19s2 9 3 11l1 3-6 6c-4 3-7 7-8 7-1 1-2 3-3 5 0 1-1 4-3 6-1 1-3 5-4 7-2 5-5 8-8 8s-6 4-6 8c0 5-1 8-5 9-2 1-4 2-7 10-5 9-5 10 3 10 6 0 19 8 29 18 5 4 9 8 9 9 0 2-2 2-6 0-2-1-6-2-8-3-4-1-5-2-5-5-1-4-4-6-11-10-4-2-7-2-13-2h-10c-1 1-5 3-7 7-6 7-29 28-34 30-6 3-7 2-7-1zm269-172c1-4-1-8-3-8-1 0-8-2-15-4-15-5-26-8-34-10-7-2-24-7-47-13-9-3-19-6-23-7-9-2-24-6-44-12-13-4-22-6-35-10-2 0-7-1-10-2-3 0-9-1-13-2-12-3-14-3-16 1-1 2-2 4-2 5 1 2 8 6 12 6 3 0 10 2 26 7 5 1 10 2 11 2 2 0 5 1 7 2s5 2 6 2c2 0 6 1 9 2 4 1 8 2 9 2 2 0 11 2 26 6 17 6 22 7 25 8 4 0 22 6 29 8 2 1 5 2 6 2 2 0 6 1 11 2 16 4 23 6 29 7 11 2 18 4 21 7 1 1 4 2 7 2 7 1 7 1 8-3zm-193-13c-1-2-1-6-2-10-2-12-3-13-7-8-3 3-5 10-5 15 0 3 1 3 4 3 1 0 4 1 6 1 4 3 4 2 4-1zm-44-27c2-2 3-4 3-6 0-3 0-3-4-4-5-2-8 0-7 4 0 5 2 9 3 9s3-1 5-3z"/>
    <path d="m420 997c-2-2-7-5-11-8-7-6-7-6-7-10 0-5-2-15-6-22-1-3-2-6-2-7 0-3-4-6-7-6-3 1-4 0-8-4-4-3-5-4-8-4s-4-1-6-2c-3-3-8-13-10-20-1-5-1-6-3-5-1 0-5 1-9 1-6 0-7 0-12-3s-10-5-19-8c-8-3-14-6-26-14-9-6-10-6-14-14-2-4-4-9-5-10 0-1-1-4-3-5-1-2-2-4-2-5 0-2 3-1 5 1 1 1 3 2 6 3 2 1 5 4 8 7 5 6 22 23 27 26 2 1 7 3 11 4 3 1 9 3 12 4 2 1 7 3 10 4 2 1 6 2 8 3 5 1 5 0 4-11-1-10-2-12-7-19-2-4-4-7-5-8-3-7-10-22-11-26-1-8-1-25 1-28l9-9c3-4 7-8 7-9 3-5 29-33 35-38 11-9 14-11 19-11s20-5 42-14c29-12 36-15 39-12 1 1 3 2 6 2 5-1 8-2 16-6 25-14 26-14 28-10 1 2 1 3 0 6-2 2-2 4-1 8 0 4 0 5-3 7-3 3-4 3-8-1-1-2-3-4-4-4-3 0-13 5-16 7-1 2-4 3-8 3-3 1-6 2-7 2-1 2-1 2 0 5 3 5 2 8-2 10-2 1-3 1-5-1-1 0-3-2-3-4-1-1-2-2-3-2-3 2-17 13-25 21-5 4-10 10-13 12-3 3-4 5-4 6 0 3-7 12-10 13-2 0-3 2-4 5 0 4-1 5-5 7s-8 7-8 10-2 6-5 7c-2 2-4 4-6 9-2 3-5 7-6 8-6 5-9 8-10 11-1 4-3 6-6 6-5 0-8-6-4-10 6-5 10-9 11-13 1-2 2-4 3-5 5-2 9-7 10-11 1-2 2-5 3-6 5-4 9-8 10-13 1-2 4-7 6-10 1-3 3-6 4-7 0-1 3-3 7-5 9-4 11-6 11-11s2-7 7-7 7-2 8-6 2-5 7-7c6-3 19-14 19-16 0-1-4-2-6 0-1 1-13 6-15 6 0 0-6 3-13 6-8 3-19 8-25 10-17 5-21 8-31 20-4 6-9 11-10 12s-2 4-3 6c-1 3-2 5-4 6-5 2-10 8-10 10 0 3-2 5-5 5-4 0-9 6-9 12 0 1-1 4-2 7-2 3-2 5-2 10 1 6 1 6 5 9 3 3 3 4 4 8 0 5 3 9 6 7 3-1 7-1 9 0 2 2 1 7-2 10l-2 3 2 4c1 2 2 5 2 7s1 4 3 6c3 3 4 6 2 10-1 2-1 3 1 7l2 3 3-3c3-4 6-5 9-3s3 7-1 10c-2 1-2 1-9-1-3-2-2 1 0 7 3 5 6 7 14 7h4v-4c0-3 1-4 2-6 5-2 11 2 10 6-1 3-2 4-7 5-2 1-2 1-1 4 1 1 3 3 4 5 4 2 8 9 10 16 3 6 3 7 7 7 3 0 5 1 6 2 3 2 2 6 0 9l-2 3 3 4c3 4 4 6 4 11 1 7 0 9-5 6z"/>
    <path d="m1310 996c-2-1-3-7-1-9 3-2 6-2 8 0 3 2 3 7 0 9s-4 2-7 0z"/>
    <path d="m507 990c-1-1-2-3-1-4 1-4 2-5 6-5 5 0 8 6 4 10-3 3-6 3-9-1z"/>
    <path d="m539 988c-2-1-3-5-2-7 2-6 11-4 11 2 0 4-5 7-9 5z"/>
    <path d="m429 985c-2-2-2-5-1-7 3-4 11-2 11 4 0 5-7 7-10 3z"/>
    <path d="m460 981c-3-2-2-7 0-9 4-2 6-1 8 2s2 3 1 6c-2 3-7 4-9 1z"/>
    <path d="m489 976c-1-2-1-3 0-5 2-4 8-5 11 0 3 6-7 11-11 5z"/>
    <path d="m523 975c-4-2-5-7-2-9 6-6 14 2 8 8-2 2-4 2-6 1z"/>
    <path d="m552 970c-2-1-3-7-1-9s8-1 9 1c3 3 2 6-1 8s-4 2-7 0z"/>
    <path d="m443 968c-4-3-2-10 3-10s8 7 4 10c-2 2-4 2-7 0z"/>
    <path d="m504 960c-4-4-1-10 4-10 3 0 6 4 6 6 0 3-3 6-6 6-2 0-3-1-4-2z"/>
    <path d="m426 955c-3-2-4-5-1-8 1-3 6-3 8 0 3 2 2 7 0 8-3 2-4 2-7 0z"/>
    <path d="m565 952c-3-3-2-7 2-9 5-3 11 5 6 9-2 3-6 2-8 0z"/>
    <path d="m486 947c-2-3-3-5 0-8 2-3 8-3 10 1 1 2 1 3 0 5-2 5-6 5-10 2z"/>
    <path d="m518 944c-3-2-3-5-1-8 1-2 3-3 4-3 3 0 6 3 6 6 0 5-5 8-9 5z"/>
    <path d="m408 941c-5-5 1-12 7-9 3 3 3 6 2 9-2 3-7 3-9 0z"/>
    <path d="m548 939c-4-4 0-12 6-9 1 0 3 2 3 3 3 6-5 11-9 6z"/>
    <path d="m439 937c-3-2-2-7 0-8 3-1 6-1 8 0 0 1 1 3 1 5 0 1-1 3-1 4-2 1-7 1-8-1z"/>
    <path d="m579 936c-3-2-3-5-1-8s5-4 8-1c2 1 3 6 0 8-1 2-5 2-7 1z"/>
    <path d="m500 929c-4-4-1-9 4-9s7 5 5 9c-1 3-7 3-9 0z"/>
    <path d="m421 924c-3-3-3-7 1-9 3-2 7-1 9 3 3 6-5 11-10 6z"/>
    <path d="m561 922c-1-2-2-3-2-4 0-3 5-7 7-6 5 2 7 8 3 10-3 3-5 2-8 0z"/>
    <path d="m451 920c-2-4-1-7 3-9 1 0 3-1 3-1 2 0 5 4 5 6 0 6-8 8-11 4z"/>
    <path d="m592 919c-2-1-3-5-2-8 2-4 10-4 12 1 1 6-5 10-10 7z"/>
    <path d="m513 913c-2-3-3-5 0-8 1-2 5-3 8-1s3 7 0 9c-3 3-5 2-8 0z"/>
    <path d="m435 907c-4-3-1-10 4-10 3 0 6 3 6 6s-3 6-6 6c-2 0-3-1-4-2z"/>
    <path d="m605 901c-1-1-2-3-2-4 0-3 3-6 6-6 6 0 8 7 4 10-3 3-6 2-8 0z"/>
    <path d="m496 899c-1-1-2-3-2-4 0-3 3-6 6-6s6 3 6 6c0 5-7 8-10 4z"/>
    <path d="m387 897c-2-2-2-4 0-7 2-4 10-2 10 3s-7 8-10 4z"/>
    <path d="m448 889c-2-2-2-5 0-8 2-2 8-1 9 1 2 3 1 7-1 8-3 3-5 2-8-1z"/>
    <path d="m370 884c-4-4-1-10 4-10 3 0 6 3 6 6s-3 6-6 6c-2 0-3-1-4-2z"/>
    <path d="m620 885c-2-1-3-2-3-5s0-4 3-6c2-1 3-1 5 0 1 1 3 2 3 3 2 3 0 7-3 8s-2 1-5 0z"/>
    <path d="m510 882c-4-3-2-10 4-10 4 0 7 7 3 10-2 2-4 2-7 0z"/>
    <path d="m401 881s-1-2-2-3c-1-2-1-3 1-5 2-3 4-4 7-2 4 2 4 5 2 8s-5 4-8 2z"/>
    <path d="m462 872c-4-4-2-9 4-9 2 0 3 1 5 3 1 2 1 3 0 5-2 3-7 4-9 1z"/>
    <path d="m601 870c-3-3-2-7 1-9 3-1 3-1 6 0 5 3 3 11-3 11-1 0-3-1-4-2z"/>
    <path d="m385 868c-6-1-4-11 2-11 4 0 6 2 6 6s-3 6-8 5z"/>
    <path d="m632 866c-3-2-2-6 0-8 3-3 5-2 5 3 1 6-2 9-5 5z"/>
    <path d="m523 864c-2-1-2-4-1-7 2-3 7-3 10 1 1 2 1 3 0 5-2 3-7 4-9 1z"/>
    <path d="m414 863c-3-1-3-6 0-8 6-6 14 2 8 8-2 2-5 3-8 0z"/>
    <path d="m476 856c-3-2-3-5-1-8 1-2 3-3 4-3 3 0 6 3 6 6 0 2-3 6-6 6-1 0-2-1-3-1z"/>
    <path d="m615 853c-4-4-1-10 4-10 3 0 6 3 6 6s-4 6-6 6c-1 0-3-1-4-2z"/>
    <path d="m397 850c-4-3-1-11 3-11 3 0 7 4 7 6 0 5-6 8-10 5z"/>
    <path d="m536 847c-1-1-2-3-2-4 0-3 3-6 6-6s6 3 6 6c0 6-6 8-10 4z"/>
    <path d="m565 843c-1-2-2-3-2-4s6-6 7-6c3 0 7 4 7 6 0 6-7 8-12 4z"/>
    <path d="m457 841c-2-2-3-4 0-7 3-4 11-2 11 4 0 5-7 7-11 3z"/>
    <path d="m349 840c-4-4-1-10 4-10 3 0 6 3 6 6s-3 6-6 6c-2 0-3-1-4-2z"/>
    <path d="m596 839c-1-2-1-3 0-5 2-5 8-6 11-1 3 6-6 11-11 6z"/>
    <path d="m488 837c-1-1-2-3-1-4 1-5 6-7 10-3 3 3 3 6 0 8-3 3-6 2-9-1z"/>
    <path d="m260 838c-2 0-5-5-5-7 0-1 2-3 4-4s7-3 12-5c14-7 20-9 26-9 4 0 6-1 8-2 5-4 8-2 9 5 0 5-1 6-12 7-8 1-11 1-17 4-4 2-10 6-13 8-5 4-7 4-12 3z"/>
    <path d="m410 832c-1-1-2-3-2-4 0-3 4-6 6-6 3 0 6 3 6 6 0 6-7 8-10 4z"/>
    <path d="m473 826c-6-2-4-11 2-11 4 0 6 2 6 6s-4 6-8 5z"/>
    <path d="m363 823c-3-2-4-5-1-8 1-3 6-3 8 0 3 2 2 7 0 8-3 2-4 2-7 0z"/>
    <path d="m423 814c-1-1-2-3-2-3 0-2 4-6 6-6 5 0 8 7 4 10-2 3-6 2-8-1z"/>
    <path d="m640 816c-1-3 0-5 2-5 1 0 2 1 1 4 0 2-3 3-3 1z"/>
    <path d="m485 807c-4-4-1-11 5-9 1 0 3 2 4 3 1 2 1 3 0 5-2 4-7 4-9 1z"/>
    <path d="m376 806c-3-2-3-7-1-9 4-3 11 0 11 5 0 4-7 6-10 4z"/>
    <path d="m439 799c-4-1-5-7-2-9 5-5 13 2 9 7-2 2-5 3-7 2z"/>
    <path d="m498 790c-2-2-3-7-1-9s7-1 9 1c3 2 2 7 0 8-3 3-6 2-8 0z"/>
    <path d="m389 788c-1-1-2-3-2-4 0-3 3-6 6-6s6 3 6 6c0 5-7 8-10 4z"/>
    <path d="m450 780c-1-1-2-3-2-4 0-2 4-6 6-6 3 0 6 3 6 6 0 6-7 8-10 4z"/>
    <path d="m1051 779c-5-1-11-2-14-3-3 0-6-1-6-1-1 0-2-3-4-6-2-6-2-7-2-12 1-6 4-13 9-20 5-9 5-9 5-57 0-24 0-51-1-58v-14l-6-1c-3 0-8 1-12 1-4 1-8 2-10 2-1 0-4 1-5 1l-2 2-1 20c0 18 0 20-2 29-4 12-6 16-15 26l-8 8-9 2c-8 2-12 2-23 2-14 0-18-1-26-5-13-7-24-16-29-25-2-2-4-5-5-5-3-2-12-18-15-26-2-4-4-10-5-12-3-5-6-23-5-25 1 0 0-5 0-10-1-4-1-18-2-30v-31c-1-6-1-28-2-48-2-64-3-100-4-101s-22 2-36 6c-4 0-7 1-9 1-1 0-5 1-7 2-3 0-7 1-9 1-3 0-8 1-12 2-5 1-9 2-9 1-1 0-3 0-4 1-5 1-13 3-23 4-7 1-22 3-48 7-6 0-17 2-25 3-9 1-19 3-23 4-6 1-11 2-20 2-10 0-11 0-12-2-2-4 1-5 9-5 4 0 14-1 21-2s18-2 25-3c17-2 34-4 39-5 2 0 9-1 15-2s15-2 22-3c6-1 13-2 15-2 6 0 14-1 24-4 3 0 8-1 12-2 3 0 8-1 10-2 3 0 7-1 10-1 2 0 5-1 7-1 1-1 7-3 13-4 5-1 11-3 13-4 3-2 3-2 3-9 0-11 0-11-13-9-21 3-37 6-44 8-4 1-11 2-16 3-14 2-49 10-71 15-5 1-11 3-15 3-19 4-31 7-33 8-5 2-25 6-44 10-3 0-6-1-6-4 0-4 8-7 24-7 4-1 10-1 11-2 2-1 6-1 9-1s6-1 8-2c3-1 22-6 39-10 5 0 13-2 18-4 5-1 13-3 17-4 15-3 39-8 48-10 2 0 6-1 10-2 3-1 9-2 14-3s12-2 17-3c4 0 10-1 12-2s6-1 8-2c3 0 4-1 5-2 1-2 1-11 1-34-1-18-1-33-1-33-1 0-1-16-1-36-1-20-2-47-2-60-1-13-1-35-1-49-1-32-1-31 21-31h12l9 7c14 13 19 17 27 25 4 5 9 9 10 10 2 1 7 5 12 10l10 8c1 0 3 2 5 4 2 3 3 3 7 3 2-1 8-2 13-2 5-1 13-2 19-3 5 0 15-2 22-3 6 0 16-2 22-3 5 0 16-2 24-3 7-1 21-3 31-4 10-2 23-4 31-5 29-3 57-6 60-7 1-1 14-3 32-5 4-1 10-2 12-2 2-1 7-1 10-2 11-1 44-5 55-7 6-1 15-2 20-3 4-1 15-2 23-4 7-1 20-3 27-4s19-3 26-4 23-3 34-5 23-3 27-4c9-2 33-5 42-6 5 0 13-2 18-2 16-3 49-8 58-9 4-1 10-1 12-2 2 0 8-1 12-2 4 0 8-1 9-1 2-1 3-8 2-18-1-5-1-18-1-31-1-18-1-22 0-23s6-2 11-2 11-1 13-1c2-1 3 0 8 3 3 2 6 5 7 7 1 1 3 4 5 5 2 2 6 7 9 12s8 13 11 17c3 3 8 9 9 11 2 2 4 6 6 7 1 1 5 6 8 11 3 4 7 10 10 13l4 6c0 1 2 3 4 6 2 2 5 6 7 9 2 2 5 6 7 7 1 1 4 3 5 5s3 6 5 8c1 3 3 6 3 8 1 1 1 19 2 39s1 40 1 44c1 3 1 22 2 40s1 39 2 46c0 6 1 19 1 28s0 34 1 55c1 52 3 164 3 178 0 35 0 37-3 45-1 4-2 8-3 9-1 2-13 10-20 14l-8 4h-11c-10 0-13 0-22-3-5-2-11-4-12-5-3-2-11-10-19-20-9-13-16-29-20-50-3-15-4-15-6-15-5 0-37 3-42 4-4 1-14 2-23 3-9 0-23 2-31 3-8 0-21 2-30 3-19 1-29 3-44 4-7 1-18 2-25 3-7 0-16 1-21 2s-16 2-25 3c-10 0-18 2-19 2-1 1-2 3-2 8-1 7 1 91 2 112 1 12 1 12 5 18 5 9 12 23 12 27 0 5-6 12-13 15-2 2-11 4-20 6s-20 4-25 5c-8 2-12 2-28 2-22-1-29-2-37-8-3-2-7-6-9-9-3-6-3-6-2-10 1-3 2-6 2-8 1-3 3-7 5-9 3-5 3-7 5-22 0-11 0-74-1-99 0-15-1-17-2-18-1 0-6 1-11 1-5 1-16 3-24 3-38 5-52 6-64 7-11 1-12 1-13 3-1 8 1 81 3 89 1 5 1 8 0 14 0 4 0 9 1 12 1 6 9 21 14 30 3 5 4 6 4 11s0 7-3 9c-2 2-3 3-4 3s-5 2-9 3c-4 2-9 5-13 6-3 1-9 2-12 3-7 2-10 2-34 2-14 1-26 1-27 1 0 0-4 0-9-1zm50-11c15-1 18-2 18-5 0-1 0-2 1-1 1 0 3 0 6 1 10 0 21-5 19-10-1-6-5-8-28-13-12-2-13-2-24-1-6 1-14 2-18 3-4 0-9 1-10 2-2 0-5 1-7 2s-6 3-9 4c-6 2-9 4-9 8 0 5 3 7 10 8 5 0 6 0 9-2 4-4 5-4 4 0 0 2 0 3 2 3 2 1 4 0 7-4 2-3 4-5 4-5 3 0 4 3 3 6s0 5 4 5c2 0 10 0 18-1zm224-16c9-1 15-3 17-4 1-1 0-2-2-4-2-4-4-10-3-10s2 1 4 2c1 1 3 2 4 2 4 0 7 1 8 3 0 3 6 2 10-2s4-6 0-8c-2-1-4-2-5-2-4-2-10-5-16-7-8-2-29-3-40-1-16 2-29 5-33 7-5 2-12 8-13 11-2 2 1 7 4 9l3 1 6-6c3-3 5-6 5-6 0-2 3-2 4 0 1 3 0 9-3 11-4 3-2 5 4 5 4 0 4-1 6-6 2-3 3-6 4-6 3-1 5 6 3 8-3 2-2 4 0 5 3 1 21 0 33-2zm-265-18c5-1 12-3 17-3 5-1 9-2 11-3s21-1 35 0c6 1 11 1 12 1 0 0-1-3-1-5-1-3-2-10-2-16-1-6-2-19-2-27-1-9-1-30-2-47 0-18-1-43-1-57-1-25-1-27-3-28-1-1-4-2-6-2h-3v6c0 5 1 8 2 9 2 2 2 4 3 37 0 19 0 47 1 63v39c0 7 0 11 1 13 5 8 1 10-10 7-5-1-9-2-11-2-2 1-8 1-12 2-8 1-19 3-28 5-2 0-3 0-4-2-2-3 1-8 6-11 5-2 5-4 2-11-1-5-1-13-2-68 0-34 0-65-1-68v-8c1-2 1-4 1-5-1-2-5-1-8 1-2 2-2 2-2 22v50c2 68 2 75 0 80 0 3-1 8-2 11 0 4-1 9-2 12-2 7-2 10 1 9 1-1 5-2 10-4zm211-16c5-4 11-6 24-8 13-1 34-1 44 2 4 0 7 1 7 0 1 0 1-4 1-9 0-11-2-82-3-99 0-8-1-26-2-40v-28c0-3 0-4 3-5 4-2 5-5 2-6s-17-3-18-2c0 0 0 2 1 4 0 2 1 7 1 12 0 4 0 9 1 12s2 29 4 92c1 32 2 46 3 52 1 5 0 7-3 4-1-1-4-2-5-3-2 0-4-2-4-4-1-2-2-17-2-46 0-32-1-43-2-44s-2-1-6 0c-3 0-7 1-8 1-7 0-7-1-6 37 0 19 1 40 1 47 1 9 1 12 0 13-2 1-4 1-5-3-4-6-4-13-5-52 0-22-1-40-1-41-1-1-2-2-3-2s-1 7 0 38c0 21 0 42 1 46 0 11-2 18-7 17-3-1-3-4-3-15-1-25-2-84-3-87 0-5-7-10-9-7-1 0-1 17 0 36 1 41 1 34 1 57-1 17-2 25-4 30-1 4 0 4 5 1zm-173-14c0-3 3-6 5-6 0 0 2-1 2-2 2-1 2-4 2-17-1-8-1-39-2-67-1-51-1-52 1-54 1-1 2-3 2-6 1-5 1-5-2-6-3 0-26 1-27 3-1 1-1 3 0 10 2 6 2 10 1 14v5c1 4 2 60 2 99 0 21 1 27 2 28 1 2 3 2 7 2 6 0 7-1 7-3zm-23-2c1-3 0-48-1-53-1-6-2-1-3 18-1 27 0 38 2 38 1 0 2-1 2-3zm-125-8c3-1 4-3 2-3-1-1-4-1-7-2-12-2-34-23-40-39l-6-12c-5-8-11-26-11-31 0-2-1-6-1-8-1-2-1-10-2-17 0-8 0-20-1-28v-15l2-1c2-2 8-3 27-4 32-3 46-4 60-5 6-1 13-2 17-2 3-1 13-2 22-3 8-1 23-3 33-3 16-2 27-3 62-8 6 0 15-1 21-2s17-2 26-3c36-4 41-5 51-6 6-1 14-1 19-2s18-2 29-3c25-3 31-3 54-6 10-1 20-2 22-2 2-1 15-2 28-4 40-5 47-6 53-7 3 0 11-1 18-2 7 0 20-2 30-3 27-3 35-4 53-6 9 0 20-1 25-2 4-1 14-2 23-2 14-2 41-5 53-7 7-1 7-1 7-9-1-5-2-8-3-9-1-2-8-2-22 0-6 1-18 3-27 3-9 1-20 3-23 3-4 1-9 1-12 1s-6 1-7 2c-2 1-5 1-15 2-7 0-23 1-35 3-12 1-27 3-32 3s-15 2-21 2c-12 2-18 3-51 6-16 1-20 2-22 4-2 1-2 1-5 0-2-1-6-1-18 1-9 0-18 2-22 2-4 1-10 1-14 1-5 1-14 2-21 2-8 1-19 3-25 4-7 0-16 1-20 2-23 3-50 6-64 7-5 0-11 1-15 1-4 1-11 1-17 2-11 1-12 1-18 5 0 1-2 1-4 0-2 0-6-1-9-1-7 0-26 3-29 5-2 0-4 1-5 0-2 0-8 1-15 1-22 3-34 5-41 6-4 1-7 1-8 0-1 0-4 0-6 1-4 1-15 3-27 4-13 1-60 7-67 8-14 2-16 2-18 1-1-1-1-3 0-4 1-4 8-6 28-8 11-1 29-3 41-5 20-2 37-4 40-4s4-2 3-4c-2-3-3-29-4-79 0-21 0-42-1-46 0-4 0-22-1-39l-1-31-4-4c-14-12-25-21-39-31-5-3-8-6-18-14-2-2-6-5-8-7s-10-7-16-12c-7-5-13-9-14-9-2 0-2 1-2 24 1 14 2 32 2 41 1 21 3 78 3 125 1 19 1 46 2 59v28c0 8-6 9-7 2-1-2-1-16-1-32-1-16-1-34-2-40 0-6 0-25-1-42 0-33-2-106-4-148-1-16-1-26 0-27 1-2 10-4 23-6 5-1 14-2 19-2 5-1 15-3 22-3 7-1 17-3 22-3 4-1 14-3 21-4 7 0 17-2 22-3 22-3 42-5 50-6h10c1-1 23-5 44-8 6 0 24-3 40-6 15-2 41-6 56-8s33-5 41-6c7-1 17-3 24-3 14-2 45-7 58-9 6 0 17-2 25-3 19-3 26-4 36-5 5-1 14-3 20-4 6 0 16-2 21-3 5 0 13-2 18-2 4 0 10-1 14-2s14-2 23-3c9-2 22-4 29-5s17-3 22-4c10-1 39-5 55-7 6-1 11-2 11-2 1 0 1-4 0-9 0-9-2-11-5-7-4 3-11 5-59 10-14 2-27 3-27 4-1 0-5 1-9 1-18 2-32 4-33 5-1 0-5 1-11 1-21 2-30 3-32 4-1 1-9 2-16 3-24 2-32 3-55 6-5 1-14 2-19 3-6 1-14 2-19 3-5 0-14 2-21 3-16 1-26 3-32 4-3 1-13 2-22 3-8 1-16 2-17 2-1 1-12 2-25 4-14 2-28 4-33 5-8 1-29 4-34 4-2 1-7 1-10 2-8 1-17 2-39 5-12 2-16 3-29 5-12 2-60 9-64 9-2 0-6 1-9 1-8 3-21 5-29 5-7 1-11 2-27 5-15 3-38 6-43 6-4 0-5-1-7-2-2-3-2-2-4-32-1-10-1-22-2-27 0-6-1-11 0-12 0-1 2-1 3-2 4 0 4-3 1-5-2-1-15-1-18 1-2 0-2-1 0 68 1 15 1 39 1 54 1 15 1 34 2 43 1 8 1 44 2 78s2 88 3 120c1 31 2 73 2 94 0 33 0 38 2 46 2 9 11 31 16 38 7 11 26 28 34 32 1 1 7 3 13 5 7 2 12 3 12 4 1 0 3 0 6-1zm26-16c10-4 11-6 16-19 2-8 2-10 2-23 0-21 0-21-9-26-4-3-8-6-9-6-1-2-13-9-21-13-3-2-8-5-10-7-3-2-6-4-8-5s-7-4-10-6c-7-5-28-16-31-16s-3 4-3 23c1 15 2 19 4 30 3 11 8 24 13 35 5 10 23 30 31 34 5 2 16 4 21 4 3-1 9-3 14-5zm718-48c1 0-3-4-8-8s-10-9-12-11c-8-10-10-13-12-17-1-2-3-5-4-7-4-4-7-11-8-18 0-4-2-11-3-16-2-12-4-48-6-102 0-14-1-33-2-41 0-9-1-19-1-21 1-2 0-7 0-10-1-4-1-20-2-35-1-16-1-39-2-51-1-13-1-36-2-52-1-30-3-83-5-129-1-15-1-32-2-38-1-7-1-20-2-28 0-20-1-30-3-31s-9 0-11 1c-1 1-1 4 0 13 0 6 1 18 2 27 0 9 1 30 2 47 1 16 2 41 3 56 1 14 2 39 3 57 0 17 1 38 2 48 0 10 0 24 1 32s1 28 1 46c1 17 1 40 2 51s1 34 2 51 1 44 2 59 1 30 0 34c0 4 0 8 1 13 1 4 3 11 3 16 3 14 10 30 18 42 8 10 17 17 25 20 7 3 17 4 18 2zm26-11c3-2 6-4 7-5 2-3 6-12 6-19 1-3 2-7 3-9 1-3 1-6 0-14 0-6-1-27-1-47-1-20-1-37-1-38-1-3-2-36-3-57v-34c-1-12-1-28-2-36v-25c-1-6-2-22-2-35-1-14-1-28-2-32v-30c-1-13-2-29-2-36-1-7-1-24-2-37 0-14-1-26-1-28-1-1-2-4-4-6-3-3-7-8-18-25-3-4-9-12-13-17-5-6-9-11-10-12-13-18-21-28-25-33-2-2-7-7-9-11-3-3-5-6-6-6s-1 12 0 33c2 30 6 118 7 154 0 14 1 37 1 51 1 14 1 39 2 55 0 16 1 36 2 45 0 9 1 25 1 37 1 12 1 23 2 24 0 2 0 18 1 37 2 46 3 62 4 72 1 5 2 11 2 14s1 6 1 8c1 1 2 4 2 6 2 7 12 32 14 35 8 11 14 16 22 21 8 4 9 4 14 4 4-1 7-2 10-4zm-700-18c10-1 15-1 15-2 2-2 3-11 2-13 0 0-3-1-5-2-4-2-5-3-6-6-1-2-2-6-2-8 0-4 1-6 7-12 7-9 11-11 23-13 3-1 10-2 13-3 9-3 24-4 46-4 19 0 25 1 33 5 5 2 6 3 8 7 2 3 2 5 1 7-1 4-6 10-11 15-4 3-4 4-4 8 0 8 1 8 11 7 7-1 66-7 89-9 6-1 11-2 12-2 1-1 1-3 1-9 0-8-1-11-3-11-3 0-10-6-11-9-3-4-2-6 0-10 1-2 2-4 2-5 0-3 5-7 11-8 3-1 7-3 9-4 3-2 5-3 18-3 2-1 10-2 18-3 10-1 17-2 33-2 19 0 20 0 26 3 6 2 8 3 11 7 3 5 4 8 3 15 0 1-2 4-6 7l-5 5v6c0 5 0 7 1 8 2 1 5 1 33-2 7-1 16-2 21-2 8-1 20-2 60-7 13-1 30-3 39-4 8 0 19-1 24-2 4-1 20-2 35-3 15-2 31-3 36-4 6-1 11-1 12-1 1 1 2 0 3 0 0-1-1-40-3-60 0-7-1-13-2-13-1-1-14 0-42 3-9 1-22 2-29 3-8 1-16 1-20 2-4 0-15 2-25 3-19 2-27 3-42 5-4 1-21 2-36 4-16 2-33 3-38 4-4 1-9 1-11 1s-6 0-8 1c-3 1-10 1-16 2-7 1-18 2-25 3-8 0-17 2-21 2-5 0-13 1-18 2s-16 2-23 3c-7 0-17 1-20 2-12 2-31 4-61 7-16 2-32 3-36 4s-16 2-26 2c-11 1-22 2-24 3-5 1-20 3-48 5-8 1-18 2-22 3s-14 2-23 3c-9 0-20 2-25 3-5 0-14 1-18 2-5 0-15 2-21 2-7 1-17 2-23 3-16 1-16 2-7 9 4 3 9 6 11 7s8 4 14 8c11 8 27 17 33 20 2 0 7 4 12 7 12 8 18 10 23 9 2 0 10-1 17-1zm297-9c8-3 8-2 6-30-1-24 0-34 1-38 1-1 1-2-1-3h-5c-3 1-3 2-1 11 1 4 1 7 0 14v17c1 9 0 15-2 15-1 0-3-1-5-3s-4-3-6-3c-4 1-4 2-3 6 0 2 1 5 1 8 0 7 5 9 15 6zm-25-8c0-3-1-4-1-4-2 0-2 6-2 9 2 3 3-1 3-5zm-19 0c5-3 5-3 4-28 0-14 0-25-1-27-1-4-7-4-9 2-1 1-1 3 0 4v24c0 22 0 27 3 27 0 0 2-1 3-2zm36-19c1-1 1-7 1-21 0-19 0-20-2-21-1-1-4-1-7-1-4 1-5 2-3 5 1 1 3 22 3 31 0 5 2 8 5 8 1 0 2-1 3-1zm-57-25c0-3-2-4-3-1-1 2 0 3 2 3 0 0 1-1 1-2zm40-15s0-1-1-1c-2 0-3 3-2 5 0 1 0 1 2-1 0-1 1-2 1-3zm-274-30c5-1 11-1 13-2l4-1-1-11v-59c-1-27-1-56-1-65-1-10-1-21-2-25-1-6-1-8 0-11 1-4 0-23-2-24-1 0-5 0-9 1-5 0-11 1-14 2-3 0-6 0-7 1s-2 5-2 24v24c1 1 3 2 5 3 4 0 18 8 24 14 3 3 4 6 2 7-2 0-14-5-20-10-3-2-6-3-8-3h-2v17c0 10 0 39 1 65v50c-1 5 0 5 4 5 3-1 9-1 15-2zm52-10c-1-15-1-18 1-21 2-2 2-4 2-12 0-11-1-13-5-13-2 0-3 1-3 6-1 3-1 11 0 18s1 15 1 18c0 6 1 7 3 7 1 0 1-1 1-3zm20 0c2-1 2-2 1-5-1-4-1-16 1-19 0-1 1-2 3-3 5-1 5-1 6-7 0-7-2-10-7-10-2-1-5-2-6-4-2-2-2-3-2-54 0-29 0-69-1-90-1-33-1-37 0-39 2-1 2-1 3 0 3 2 4 8 4 26s2 69 3 71c1 0 1 5 2 10s1 10 2 10c2 3 3-49 1-76-1-8-1-16 0-18 1-7 7-8 9-2 2 5 3 34 4 57 0 13 0 24 1 28 2 7 2 13 1 27 0 9 0 14 1 17 0 3 1 15 1 31 1 26 2 44 3 46h2c2-1 2-3 1-13 0-7-1-16-1-20-1-5-1-31-2-57v-55c-1-3-1-21-2-39s-1-35-2-36c-3-20-3-20-8-25-3-2-7-4-9-5-16-4-17-4-23-3-12 2-19 5-25 11-7 6-9 11-7 17 1 2 1 10 1 19s0 20 1 25c1 4 1 19 1 32 1 12 1 40 1 62 1 22 2 45 2 52 1 6 1 15 1 20-1 8 0 10 3 10 1 0 2-1 3-1 1-2 0-121-2-149-1-19-2-68 0-71 0-3 7-6 12-7 5 0 6 0 6 2 1 1 1 8 2 15 0 7 0 18 1 24 0 5 0 13 1 17 0 4 0 15 1 25s1 23 1 30v24c0 6 0 13-1 13 0 1 0 4 1 8v10c-1 5 0 19 2 47 1 8 1 16 1 18 0 6 4 8 8 4zm74-7c5-1 16-3 24-3 7-1 19-3 27-4 7 0 17-2 24-2 6-1 11-1 12-2 1 0 1-6 0-40 0-22-1-45-1-51v-31c-1-38-3-77-4-78 0 0-4 1-8 1-3 1-10 2-13 3-4 0-14 1-21 2s-21 3-29 4c-41 5-42 5-44 7s-2 4-2 20c1 17 1 27 2 76 2 78 3 97 4 99 2 1 11 1 29-1zm124-20v-6c-2-3-3 1-3 6 0 7 2 6 3 0zm50-1c1-1 1-3 1-4-1-1-1-7-2-15-1-46-2-67-2-70-1-2-1-15-2-29 0-14-1-33-2-42 0-9-1-23-1-31s0-20-1-27v-18c1-4 0-5-1-9-2-5-8-11-13-14s-20-4-30-2c-6 1-8 2-13 6-4 2-8 7-10 10l-3 5v17 38c1 11 1 30 1 41 1 11 1 28 2 37 1 14 2 36 2 84 1 12 1 20 2 20 1 2 1 2 4-5l3-6v-19c-1-11-2-23-2-27-1-4-1-15-1-23 0-9-1-23-1-30-1-22-3-55-3-79l-1-22 3-5c3-7 4-8 8-6 3 1 4 1 5-1s4-3 6-1c0 1 1 12 1 24s1 28 1 35c1 6 1 21 1 33 1 12 1 22 1 23 1 0 1 17 1 38 1 21 1 39 2 41 0 2 2 4 4 5s4 2 4 1c1 0 1-7 1-20-2-32-2-112-1-110 1 3 4 21 4 31 0 5 1 15 1 23 1 8 2 24 2 35 1 29 2 34 5 34 4 0 4-3 3-30-1-14-1-28-1-31s0-16-1-29c0-13-1-32-2-42-1-11-2-31-2-45-2-27-2-29 2-29 2 0 3 2 6 7 2 5 3 7 2 15 0 5 1 24 2 42 0 18 1 38 2 45 0 7 0 20 1 29v25 10c0 1 0 7 1 14 0 8 1 15 1 17 1 3 1 12 2 21v16c0 1 2 1 3 1 3 0 4-1 5-2zm24-1c4 0 11-1 17-2 5-1 14-2 21-3 6 0 17-2 25-2 37-5 59-7 70-9 14-1 51-5 76-8 33-4 43-5 45-7 2-1 2-19 0-60-1-16-2-37-3-48v-21c-1 0-1-15-2-34-1-18-2-33-2-34-1-2 0-2-27 1-8 0-20 2-27 3s-16 2-21 2-9 1-10 1c-1 1-7 1-13 2-12 1-34 3-43 5-4 1-11 1-16 2-5 0-10 0-10 1-1 0-9 1-41 5-15 2-29 3-31 4-3 0-9 1-14 2-12 1-12-1-10 23 2 29 3 70 4 126 1 35 1 50 2 51s2 1 10 0zm-75-39c-1-46-1-56-3-57-1-1-2-1-3-1 0 1-1 38-1 52 0 7 2 25 2 26 2 4 4 5 5 4s1-12 0-24zm-216 1c1-1 1-3 1-8-1-4-1-19-2-33 0-15-1-26-1-27-1-1-2-1-4 1l-2 1v29c1 26 1 34 3 38 0 1 3 1 5-1zm-58-128c8-1 15-1 16-2 3 0 3-3 2-20-1-14-1-16 0-18 1-1 2-4 2-7s1-7 3-9c2-6 9-13 12-13 1 0 7-2 13-4 14-5 21-5 41-1 7 2 22 14 25 21 1 2 1 8 1 14s0 14 1 17c0 5 1 6 3 6 3 0 63-8 78-11 6-1 13-3 16-3 3-1 9-1 13-1 5 1 7 0 7-1 1-2 1-23 0-30-1-5-1-8 0-12 2-5 9-15 14-18 2-2 4-4 4-5 2-5 22-8 43-8l12 1 5 3c7 5 16 16 17 21 1 2 1 10 2 19 0 8 1 16 1 17 1 0 3 1 5 1 4 0 32-3 63-7 11-2 45-6 62-8 4-1 13-2 20-3 6 0 12-1 14-2 1 0 19-2 39-4 52-6 61-7 62-9 0-1 0-13-1-26-1-14-1-28-1-32s0-14-1-23c-1-17-2-18-7-17-38 4-55 7-61 8-2 1-9 2-13 2-9 1-33 4-44 6-2 0-9 1-13 2-5 1-15 2-21 3-31 5-51 8-75 11-5 1-11 1-13 2-3 1-11 2-17 3-6 0-17 2-23 3-15 2-23 4-39 6-7 0-12 1-13 1 0 1-7 2-15 2-9 1-16 3-18 3-1 1-7 2-14 3-14 1-36 4-44 6-4 1-12 2-19 3-8 0-18 2-23 2-5 1-15 3-22 3-8 1-17 3-22 3-5 1-13 3-19 3-7 1-14 3-17 3s-11 2-18 2c-17 2-16 2-30 5-7 1-16 2-20 2-5 1-11 2-14 2-4 1-12 3-18 4-7 0-18 2-25 3s-16 3-21 3c-16 1-15 3 18 26 8 5 17 12 20 14 3 3 8 6 10 8 8 4 16 11 25 19 4 4 9 7 11 8 1 0 3 0 4 1 1 0 2 0 17-1zm-105-115c28-3 28-3 28-5s-22-23-40-38c-7-6-13-11-14-11-1-1-1 3-1 27 1 15 1 28 2 28 0 1 0 1 25-1z"/>
    <path d="m1066 756c1-1 1-3 1-3 0-1 0-1 1-1 2 0 1 5-1 6-1 0-1 0-1-2z"/>
    <path d="m1458 532c-2-2-5-4-6-5-2-3-5-10-5-13 0-7 4-11 19-16 12-4 18-5 37-7 6-1 11-1 11-2h21c21 0 29 1 33 5 3 4 9 12 9 13 0 3-5 8-10 12-8 6-18 9-39 13-9 2-39 4-47 3h-11c-5 2-7 1-12-3zm71-11c4 0 10-1 14-2 8-1 13-3 17-7 5-3 5-4 4-7-1-4-4-4-4 0-1 3-5 5-17 9-11 4-19 5-35 5-15 0-29 1-29 2s3 2 24 2c15 0 21 0 26-2zm-36-11c11-1 27-3 30-4 2-1 5-1 8-1 3 1 5 0 9-2 3-1 6-3 7-3 1-2-6-3-24-3-28 1-56 6-56 11 0 3 5 3 26 2z"/>
    <path d="m1012 393c-7-4-9-7-8-9 2-2 5-1 11 3 4 2 7 4 9 5s2 3-2 4c-1 0-5-1-10-3z"/>
    <path d="m1159 469c-8-5-12-8-12-10 0-4 3-3 9 1 4 3 8 5 10 7 2 1 4 2 4 3 0 3-4 2-11-1z"/>
    <path d="m1194 464c-6-2-16-7-24-12-18-11-22-14-22-15s0-3 1-3c4-2 10 0 20 7 8 6 25 17 27 17 1 0 7 5 7 7 0 1-2 1-9-1z"/>
    <path d="m1281 219c-3-1-4-5-3-6 0-1 2-3 4-4 4-2 5-2 11-1 8 0 10 2 7 6s-15 7-19 5z"/>
    <path d="m1481 208c-8-1-16-7-19-12-5-7 1-21 10-26 6-3 19-7 27-8 8 0 22 1 29 3 5 2 13 9 15 15 2 3 2 3 0 9-4 7-8 12-12 14-7 4-38 7-50 5zm26-10c11-2 20-5 23-10 3-4 4-4 1-6-1-1-2-1-4 0-11 4-13 4-32 4-18-1-25 0-26 3 0 2 8 7 14 9 7 1 13 1 24 0z"/>
    <path d="m405 772c-2-1-1-4 3-5 4-2 6 2 2 4-3 2-3 2-5 1z"/>
    <path d="m2153 765c0-2-2-8-4-14-5-26-8-33-15-42-3-3-6-8-8-11-4-7-9-13-21-24-5-4-11-9-13-12-2-2-6-5-9-6-2-2-8-7-13-12-9-9-14-16-12-20 0-3 4-3 8 0s26 10 35 11c12 1 33-1 38-5 0 0 4-2 9-4 18-7 41-28 41-36 0-2 1-6 3-9 5-11 7-30 4-43-2-13-8-22-17-27-2 0-2-2-2-5 0-8 2-11 7-10 2 1 13 20 15 25 0 1 1 4 2 6 3 7 7 20 7 26 0 18-7 36-20 50s-27 25-37 28c-3 1-7 3-9 5-4 2-13 4-25 5-8 1-23-1-32-4-3-1-5-1-6-1 0 1 6 7 13 13 5 4 28 30 31 35 1 1 3 5 6 8 10 12 13 16 16 22 2 4 5 9 6 12 4 4 8 16 8 20 0 2-1 4-2 6-1 3-1 6 0 9 0 7-1 8-4 4z"/>
    <path d="m464 763c-2-2-3-7-1-9 3-2 8-1 10 2 1 3 1 3-1 6s-6 4-8 1z"/>
    <path d="m1408 737c-1-3 1-7 8-14 5-5 7-7 7-10 0-4 9-16 24-31 9-9 18-17 21-19 11-10 23-20 33-28 5-5 12-11 16-14 3-2 7-5 10-7 2-2 8-6 13-9 6-3 14-8 18-12 10-8 18-13 28-16 11-2 13-2 14-1 1 3-1 5-8 11s-17 12-28 17c-5 2-10 4-11 6-2 1-6 4-9 6s-9 6-12 10c-4 3-9 7-10 8-2 1-8 5-13 9s-11 9-13 11c-3 2-6 5-8 7-3 2-5 4-7 5-5 4-55 58-58 63-1 3-11 10-13 10l-2-2z"/>
    <path d="m1819 700c-1-1-2-2-2-3 0-4 3-5 20-7 8-1 16-2 18-3 1 0 9-1 19-2s21-3 25-4c5 0 13-2 18-2 6 0 19-2 29-5 19-4 23-3 23 1 0 2-2 3-11 5-4 1-9 3-12 4-4 2-11 2-40 3-4 1-8 1-9 2-2 1-7 1-11 2-4 0-10 1-12 2-2 0-9 1-15 2-5 1-14 2-20 3-13 3-17 3-20 2z"/>
    <path d="m554 671c-1 0-2-2-3-4-1-4-5-5-22-11-13-5-30-11-56-20-5-2-15-6-22-8-7-3-14-6-16-6-2-1-10-4-17-7-8-3-21-8-29-11-9-4-19-7-22-8-4-1-8-2-8-3-2-1-7-3-29-10-6-2-12-4-13-5-16-7-80-27-95-31-9-2-13-5-9-11 1-3 1-3 0-5-3-2-2-4 0-5 3-2 12-3 14-1 3 2 2 5-2 5-2 1-3 2-3 2 0 2 8 8 11 9 1 0 4 1 7 2 2 2 7 3 12 4 4 1 11 3 16 5s13 5 20 7c6 2 14 5 18 7 3 1 9 3 13 4s9 3 12 4c2 2 7 4 9 4 9 3 33 12 43 16 6 2 13 5 17 6 3 1 7 3 8 4 1 0 6 2 10 3 3 1 8 3 10 4 1 1 7 3 11 5 5 1 13 5 18 7 6 2 11 4 11 4 1 0 4 1 7 2 3 2 9 4 13 5 11 4 16 6 19 7 4 2 22 8 35 12 7 2 15 5 17 7 4 2 5 2 10 1 3 0 9-1 12-1 4 0 8 0 10-1 4-1 9-2 27-4 6-1 16-3 22-5 6-1 14-2 19-3 8 0 15-2 31-6 4 0 10-2 15-2 4 0 10-2 13-3 7-2 18-5 23-5 2-1 7-2 12-3 14-4 28-7 33-8 3 0 7-2 10-3 6-3 20-6 25-6 4 0 5 0 5 2 0 1-1 2-3 3-4 3-23 8-36 10-7 1-15 3-17 4-3 0-15 3-27 5-12 3-27 6-33 8-7 1-17 3-23 4-7 1-14 3-17 4-3 0-9 1-13 2-4 0-7 1-8 1 0 1-5 2-10 3-12 2-21 3-31 5-5 1-15 3-22 4-8 1-15 3-17 3-5 2-12 3-15 2z"/>
    <path d="m837 592c-13-3-22-11-17-15 2-1 4-1 14 4 5 2 10 4 11 4 4 2 4 9-1 9-1 0-4-1-7-2z"/>
    <path d="m789 588c-10-3-15-7-15-12 0-7 6-9 11-4s8 7 12 7c7 0 19-17 20-27v-5h-3c-4 0-25-9-27-11-1-1-2-1-3-1s-4-1-7-2c-30-13-53-23-61-25-15-5-21-9-22-11 0-1-1-3 0-3 0-1 4-1 6 0 0 0 3 2 7 3s9 3 12 5 6 3 7 3 6 2 10 4c5 2 11 4 14 5s10 4 15 7 10 5 12 6c1 0 8 3 15 6s14 5 14 5c1 0 4 1 6 2 4 2 5 2 7 1 3-2 5-1 5 4 1 10 0 12-1 18-3 11-5 13-20 26-3 2-7 2-14-1z"/>
    <path d="m835 577c-1-2-1-2 0-3 3-1 4 1 3 3-1 1-2 1-3 0z"/>
    <path d="m778 563c-18-9-36-18-39-20-2-1-5-2-6-2-2 0-25-10-29-13-2-2-9-5-20-9-3 0-8-2-11-4l-7-3-6 3c-8 4-15 4-21 1s-14-9-15-11c0-3 3-2 6 0 1 1 4 2 6 3 2 0 6 0 9 1 3 0 5 0 7-1 2-2 0-4-11-6-12-3-15-4-15-7 0-2 1-2 6-2 3 0 9 2 14 3 12 4 15 5 18 2 2-1 4-4 5-6 2-6 1-7-7-10-6-2-10-5-10-8 1-2 4-3 6-1s11 5 12 5c1-1 2-3 3-5 1-3 2-4 3-4 2 0 3 1 3 7 1 9 0 17-4 25l-2 4 2 2c6 4 15 10 17 11 1 0 5 1 8 3 2 1 6 2 7 2 3 0 14 4 26 10 2 0 4 1 4 1 1 0 11 4 22 10 11 5 21 10 22 10 5 2 13 7 13 9 0 4-9 4-16 0z"/>
    <path d="m237 523c0-2 4-6 7-6 1 0 5-1 8-3 5-3 7-3 10-2 3 0 6 0 9-1s11-3 17-4 15-3 19-4c4-2 11-4 15-4 7-2 15-4 31-9 3-1 12-3 21-5 8-2 16-4 18-5 1 0 7-2 11-3 5-1 10-3 11-3 1-1 9-3 18-5s19-5 22-5c3-1 9-3 14-4 4-1 9-3 11-4s6-2 8-2 7-2 11-2c3-1 8-3 12-4 3 0 8-2 12-3 3-1 7-2 9-3 3 0 3 0 3 3 0 2-1 3-6 4-7 3-32 9-34 9-1 0-4 1-7 1-6 2-26 8-37 11-5 1-11 3-13 4-2 0-9 2-13 3-5 1-13 3-17 4s-12 4-18 5c-29 8-34 9-45 12-31 10-51 15-65 18-6 1-13 3-17 4-11 3-16 4-21 5-3 0-4 0-4-2z"/>
    <path d="m216 516c-3-4 0-8 9-9 13-3 32-7 40-10 5-2 10-3 12-3 1 0 4-1 7-2s7-2 8-2c2 0 5-1 6-1 1-1 4-2 5-2s5-1 8-2c6-2 28-8 41-10 4-1 9-2 10-3 9-3 29-8 44-10 4-1 8-2 10-3 2 0 6-2 9-2 4-1 9-2 13-3 8-2 20-5 31-8 5-1 12-3 16-5 4-1 8-2 9-2s7-2 12-3c6-2 14-4 18-5 3-1 7-2 8-2 4-2 7 0 4 3-2 1-15 5-26 8-9 2-29 7-36 9-2 1-8 3-13 4s-12 3-16 4c-17 4-47 12-53 13-15 3-32 7-42 10-4 1-11 3-17 4s-12 3-13 3c-1 1-8 3-15 4-19 5-41 12-52 15-6 2-15 5-19 6-5 2-11 4-12 4-3 1-4 1-6 0z"/>
    <path d="m208 504c-2-2-1-5 2-6 4-1 7 0 7 2 0 3-7 6-9 4z"/>
    <path d="m2210 500c-1-1-5-5-8-7-6-6-18-13-24-15-8-2-9-3-9-6 0-2 3-3 7-3 4 1 21 12 27 17 8 8 12 13 12 14 0 3-1 2-5 0z"/>
    <path d="m589 492c-5-1-7-2-9-6s-1-7 1-5 8 4 16 4c5 0 16-5 22-10 5-5 8-11 7-14s-4-3-14-3h-8l-3-5c-1-4-3-5-6-6-3-2-4-6-2-7 3-1 15 3 20 6 6 4 13 7 15 7 1 0 3-2 5-3 4-4 7-5 8-2 1 0 0 5-2 10s-3 10-3 10c0 1-1 4-2 7-3 6-12 13-20 16-7 2-19 3-25 1z"/>
    <path d="m186 486c-4-4-1-7 6-9 2 0 5-1 8-2 2 0 6-1 8-1 3 0 6-1 15-3 3-1 7-2 10-2 2 0 9-2 14-3s12-3 15-3 9-2 14-2c4-1 12-3 18-4 13-3 13-3 18-4 2-1 5-2 7-2s5-1 7-1c3-2 15-4 33-7 5-1 12-3 15-3 3-1 8-2 11-2 13-2 27-4 37-6 6-1 14-2 17-3 2-1 11-3 19-4 7-2 15-3 18-4 2-1 5-1 7-1s4 0 6-1 6-2 22-5c2-1 8-3 12-5 6-3 7-4 7-6 0-5 3-8 15-14 11-5 12-5 19-5 5 0 8 0 10 2 3 2 12 4 18 4 5 0 9 4 10 10 1 5 0 8-3 8s-6-2-7-6-3-5-11-5c-5 1-6 1-9-1-5-4-13-5-20-2-5 2-7 3-7 5 0 4-2 5-7 6-4 1-5 2-5 5-2 5-12 9-33 13-6 1-19 4-28 6-10 2-21 5-23 5s-15 3-28 5c-13 3-26 5-30 6s-10 2-13 2c-4 1-10 2-13 2-6 1-17 3-41 9-38 9-47 11-65 14-11 2-24 5-36 8-10 3-32 8-34 8-1 0-2-1-3-2z"/>
    <path d="m579 469c-5-2-11-4-15-5-3-2-7-4-8-5-3-2-2-5 1-6 2 0 32 13 33 15s1 2 0 3c-2 1-1 1-11-2z"/>
    <path d="m552 436c-5-5-6-9-4-12 3-2 14-3 18-1 3 1 5 1 9-3l4-4c2 0 4-3 5-4 0-2 2-4 2-4 2-1 5 1 5 3 0 3-2 7-4 9-1 1-2 3-2 4 0 3-1 5-4 8-7 6-10 7-18 8h-8l-3-4z"/>
    <path d="m613 429c-5-1-8-3-8-7 0-6 3-8 8-3 3 2 4 2 15 2 6-1 19-1 28-2 14-1 17-1 19 0 2 2 3 2 4 1s4-2 8-2c4-1 9-2 12-3s6-1 8 0h5s5-1 10-1c4 0 11-1 15-2 10-3 32-7 39-8 3 0 7 0 8 1 2 1 2 1-3 2-2 1-10 3-17 4s-15 2-18 3-9 1-12 2c-4 1-12 2-17 2-11 2-24 4-34 5-9 0-25 2-34 3-5 0-12 1-17 2s-10 1-11 1c-2 1-5 0-8 0z"/>
    <path d="m790 406c-2-1-2-1 0-2s6-3 11-3c4-1 10-2 13-2 3-1 7-1 9-1 1 0 6-1 9-2 4-1 9-2 11-2 4 0 5 0 5 2 0 1-2 2-8 3-5 0-12 2-17 3s-12 2-16 3c-5 1-10 1-12 1-2 1-4 1-5 0z"/>
    <path d="m1990 388c-2-2-3-7-2-11 1-3 14-15 20-19 1-1 4-3 6-5 7-6 38-24 46-27 3-1 8-2 10-4 3-1 7-2 8-2 3 0 3 0 3 3 0 5-4 10-8 10-2 0-6 1-8 3-2 1-10 5-16 9-25 14-38 24-47 35-5 7-10 10-12 8z"/>
  </g>
  <style type="text/css">/* Specular Highlighting */
		.low-specularity	{opacity:0.25;}
		.specularity		{opacity:0.5;}
		.high-specularity	{opacity:0.75;}
		.full-specularity	{opacity:1;}

	/* Shading */
		.low-shade	{opacity:0.25;}
		.shade		{opacity:0.5;}
		.high-shade	{opacity:0.75;}
		.full-shade	{opacity:1;}

	/* Tango palette fill/stroke */
		.black		{fill:#000;}
		.aluminium1	{fill:#eeeeec;}
		.aluminium2	{fill:#d3d7cf;}
		.aluminium6	{fill:#2e3436;}
		.chocolate3	{fill:#8f5902;}
		.chocolate2	{fill:#c17d11;}
		.aluminium4	{fill:#888a85;}

	/* Shadows: Back-Shadows &amp; Base Shadows */
		.base-shadow	{opacity:0.4;}
		.outline-big	{stroke:black;stroke-width:8;opacity:0.25;stroke-linejoin:round;}
		.outline-small	{stroke:black;stroke-width:4;opacity:0.5;stroke-linejoin:round;}
		.stroke-highlight	{fill:none;stroke:white;stroke-opacity:0.2;stroke-width:4;stroke-linejoin:round;}</style>
  <style type="text/css">/* Specular Highlighting */
		.low-specularity	{opacity:0.25;}
		.specularity		{opacity:0.5;}
		.high-specularity	{opacity:0.75;}
		.full-specularity	{opacity:1;}

	/* Shading */
		.low-shade	{opacity:0.25;}
		.shade		{opacity:0.5;}
		.high-shade	{opacity:0.75;}
		.full-shade	{opacity:1;}

	/* Tango palette fill/stroke */
		.black		{fill:#000;}
		.aluminium1	{fill:#eeeeec;}
		.aluminium2	{fill:#d3d7cf;}
		.aluminium6	{fill:#2e3436;}
		.chocolate3	{fill:#8f5902;}
		.chocolate2	{fill:#c17d11;}
		.aluminium4	{fill:#888a85;}

	/* Shadows: Back-Shadows &amp; Base Shadows */
		.base-shadow	{opacity:0.4;}
		.outline-big	{stroke:black;stroke-width:8;opacity:0.25;stroke-linejoin:round;}
		.outline-small	{stroke:black;stroke-width:4;opacity:0.5;stroke-linejoin:round;}
		.stroke-highlight	{fill:none;stroke:white;stroke-opacity:0.2;stroke-width:4;stroke-linejoin:round;}</style>
  <g stroke="#ff5656" stroke-width="0">
    <g transform="matrix(-.0335 -.0219 .0219 -.0335 131 244)">
      <path d="m219 396 101-64.2 100 64.2-38.4 104h-124z" fill="#bf0000"/>
      <path d="m261 494 58.1-155 58.1 155z" fill="#f00"/>
      <path d="m226 398 93.3-59.4 93.2 59.4z" fill="#800118" fill-opacity=".7"/>
      <path d="m297 398-35.8 95.9-35.8-95.9z" fill="#d0000d" stroke-opacity="null"/>
      <path d="m413 398-35.8 95.9-35.8-95.9z" fill="#ff3003" stroke-opacity="null"/>
    </g>
    <g transform="matrix(.0352 .0191 -.0191 .0352 247 213)">
      <path d="m219 396 101-64.2 100 64.2-38.4 104h-124z" fill="#bf0000"/>
      <path d="m261 494 58.1-155 58.1 155z" fill="#f00"/>
      <path d="m226 398 93.3-59.4 93.2 59.4z" fill="#800118" fill-opacity=".7"/>
      <path d="m297 398-35.8 95.9-35.8-95.9z" fill="#d0000d" stroke-opacity="null"/>
      <path d="m413 398-35.8 95.9-35.8-95.9z" fill="#ff3003" stroke-opacity="null"/>
    </g>
    <g transform="matrix(.0167 -.0364 .0364 .0167 250 218)">
      <path d="m219 396 101-64.2 100 64.2-38.4 104h-124z" fill="#bf0000"/>
      <path d="m261 494 58.1-155 58.1 155z" fill="#f00"/>
      <path d="m226 398 93.3-59.4 93.2 59.4z" fill="#800118" fill-opacity=".7"/>
      <path d="m297 398-35.8 95.9-35.8-95.9z" fill="#d0000d" stroke-opacity="null"/>
      <path d="m413 398-35.8 95.9-35.8-95.9z" fill="#ff3003" stroke-opacity="null"/>
    </g>
    <g transform="matrix(.0389 .00959 -.00959 .0389 122 210)">
      <path d="m219 396 101-64.2 100 64.2-38.4 104h-124z" fill="#bf0000"/>
      <path d="m261 494 58.1-155 58.1 155z" fill="#f00"/>
      <path d="m226 398 93.3-59.4 93.2 59.4z" fill="#800118" fill-opacity=".7"/>
      <path d="m297 398-35.8 95.9-35.8-95.9z" fill="#d0000d" stroke-opacity="null"/>
      <path d="m413 398-35.8 95.9-35.8-95.9z" fill="#ff3003" stroke-opacity="null"/>
    </g>
    <g transform="matrix(-.0332 .0224 -.0224 -.0332 258 238)">
      <path d="m219 396 101-64.2 100 64.2-38.4 104h-124z" fill="#bf0000"/>
      <path d="m261 494 58.1-155 58.1 155z" fill="#f00"/>
      <path d="m226 398 93.3-59.4 93.2 59.4z" fill="#800118" fill-opacity=".7"/>
      <path d="m297 398-35.8 95.9-35.8-95.9z" fill="#d0000d" stroke-opacity="null"/>
      <path d="m413 398-35.8 95.9-35.8-95.9z" fill="#ff3003" stroke-opacity="null"/>
    </g>
    <g transform="matrix(-.0311 .0252 -.0252 -.0311 130 105)">
      <path d="m219 396 101-64.2 100 64.2-38.4 104h-124z" fill="#bf0000"/>
      <path d="m261 494 58.1-155 58.1 155z" fill="#f00"/>
      <path d="m226 398 93.3-59.4 93.2 59.4z" fill="#800118" fill-opacity=".7"/>
      <path d="m297 398-35.8 95.9-35.8-95.9z" fill="#d0000d" stroke-opacity="null"/>
      <path d="m413 398-35.8 95.9-35.8-95.9z" fill="#ff3003" stroke-opacity="null"/>
    </g>
    <g transform="matrix(-.0334 -.0221 .0221 -.0334 109 126)">
      <path d="m219 396 101-64.2 100 64.2-38.4 104h-124z" fill="#bf0000"/>
      <path d="m261 494 58.1-155 58.1 155z" fill="#f00"/>
      <path d="m226 398 93.3-59.4 93.2 59.4z" fill="#800118" fill-opacity=".7"/>
      <path d="m297 398-35.8 95.9-35.8-95.9z" fill="#d0000d" stroke-opacity="null"/>
      <path d="m413 398-35.8 95.9-35.8-95.9z" fill="#ff3003" stroke-opacity="null"/>
    </g>
    <g transform="matrix(.0314 -.0249 .0249 .0314 88.1 88.6)">
      <path d="m219 396 101-64.2 100 64.2-38.4 104h-124z" fill="#bf0000"/>
      <path d="m261 494 58.1-155 58.1 155z" fill="#f00"/>
      <path d="m226 398 93.3-59.4 93.2 59.4z" fill="#800118" fill-opacity=".7"/>
      <path d="m297 398-35.8 95.9-35.8-95.9z" fill="#d0000d" stroke-opacity="null"/>
      <path d="m413 398-35.8 95.9-35.8-95.9z" fill="#ff3003" stroke-opacity="null"/>
    </g>
    <g transform="matrix(.0134 .0377 -.0377 .0134 120 69.9)">
      <path d="m219 396 101-64.2 100 64.2-38.4 104h-124z" fill="#bf0000"/>
      <path d="m261 494 58.1-155 58.1 155z" fill="#f00"/>
      <path d="m226 398 93.3-59.4 93.2 59.4z" fill="#800118" fill-opacity=".7"/>
      <path d="m297 398-35.8 95.9-35.8-95.9z" fill="#d0000d" stroke-opacity="null"/>
      <path d="m413 398-35.8 95.9-35.8-95.9z" fill="#ff3003" stroke-opacity="null"/>
    </g>
  </g>
</svg>
